<?xml version="1.0" encoding="UTF-8"?>
<svg version="1.1" xmlns="http://www.w3.org/2000/svg" width="640" height="640">
<path d="M0 0 C211.2 0 422.4 0 640 0 C640 211.2 640 422.4 640 640 C428.8 640 217.6 640 0 640 C0 428.8 0 217.6 0 0 Z " fill="#221F20" transform="translate(0,0)"/>
<path d="M0 0 C1.16402344 0.19335938 2.32804688 0.38671875 3.52734375 0.5859375 C41.49712314 7.53878652 80.10597878 28.4689005 102.53076172 60.55566406 C109.67838159 71.25498782 114.69162128 82.56901265 118 95 C118.35707031 95.99773437 118.71414063 96.99546875 119.08203125 98.0234375 C120.70143013 103.70768329 120.33954096 109.70465612 120.3125 115.5625 C120.30686035 116.8215918 120.3012207 118.08068359 120.29541016 119.37792969 C120.18246185 128.00449621 119.70968165 135.75805166 117 144 C116.80664062 144.61665527 116.61328125 145.23331055 116.4140625 145.86865234 C107.85513682 172.74077318 89.01588299 193.4063988 66 209 C64.94039063 209.72058594 63.88078125 210.44117188 62.7890625 211.18359375 C43.87435673 223.40430416 20.18754067 232.36135276 -2 236 C-3.22074219 236.20238281 -4.44148437 236.40476562 -5.69921875 236.61328125 C-17.07615201 238.23379011 -28.53226233 238.21137532 -40 238.25 C-40.80550293 238.25526703 -41.61100586 238.26053406 -42.44091797 238.26596069 C-50.64848892 238.30741202 -58.52556996 238.34205231 -66.54296875 236.33105469 C-72.61628612 235.51275 -77.12190761 237.27388377 -82.25390625 240.359375 C-82.82848572 240.70029175 -83.40306519 241.0412085 -83.99505615 241.39245605 C-85.85754902 242.50087865 -87.70987062 243.62518398 -89.5625 244.75 C-90.85439535 245.522925 -92.14696467 246.29472455 -93.44018555 247.06542969 C-96.05009296 248.62269824 -98.65634874 250.18581238 -101.25976562 251.75390625 C-106.58711871 254.95920272 -111.95196945 258.10063592 -117.3125 261.25 C-122.71083925 264.42743696 -128.06693051 267.63267738 -133.30371094 271.07177734 C-135.62254334 272.34066059 -137.41863288 272.46933948 -140 272 C-141 271 -141 271 -141.12025452 268.48802185 C-141.11803391 267.37105423 -141.11581329 266.25408661 -141.11352539 265.10327148 C-141.11344986 263.84203964 -141.11337433 262.5808078 -141.11329651 261.28135681 C-141.1081891 259.89460206 -141.10297309 258.50784771 -141.09765625 257.12109375 C-141.09579201 255.71004791 -141.09436814 254.29900143 -141.09336853 252.88795471 C-141.08954379 249.16759465 -141.0797139 245.4472734 -141.06866455 241.72692871 C-141.05844948 237.93319219 -141.05387071 234.13944942 -141.04882812 230.34570312 C-141.03809158 222.89711769 -141.0210157 215.44856428 -141 208 C-141.76497803 207.71495605 -142.52995605 207.42991211 -143.31811523 207.13623047 C-146.73478438 205.6886949 -149.29094976 203.53272388 -152.0625 201.125 C-152.62686768 200.63813721 -153.19123535 200.15127441 -153.77270508 199.6496582 C-175.3196766 180.83699767 -191.39033238 158.09392098 -195 129 C-196.71857416 100.19198529 -189.53303349 74.11880621 -170.5625 51.84765625 C-128.23683605 4.81197177 -61.22325784 -12.05401627 0 0 Z " fill="#212020" transform="translate(279,206)"/>
<path d="M0 0 C0.78439453 0.13390137 1.56878906 0.26780273 2.37695312 0.40576172 C20.95611406 3.66699741 38.51568215 10.95732059 55 20 C55.63631348 20.34643555 56.27262695 20.69287109 56.92822266 21.04980469 C66.55635968 26.36070742 74.94263062 32.52897648 83 40 C83.55461914 40.51079102 84.10923828 41.02158203 84.68066406 41.54785156 C103.17296268 58.7670143 117.28576644 82.0822337 119.20703125 107.76782227 C120.05113603 132.43810341 115.89291199 154.68846155 101 175 C100.443125 175.77730469 99.88625 176.55460938 99.3125 177.35546875 C90.61078101 188.85148974 79.50674469 200.62785106 67 208 C66.34 208 65.68 208 65 208 C65.00222061 208.78704819 65.00444122 209.57409637 65.00672913 210.38499451 C65.02673113 217.7869033 65.04197366 225.18879908 65.05181217 232.59072781 C65.0570402 236.39651577 65.06413638 240.20228148 65.07543945 244.00805664 C65.0862712 247.67792544 65.09227744 251.34777278 65.09487724 255.01765633 C65.09673097 256.42074992 65.1003506 257.82384229 65.10573006 259.2269268 C65.11294419 261.1856968 65.11340809 263.1444882 65.11352539 265.10327148 C65.115746 266.22023911 65.11796661 267.33720673 65.12025452 268.48802185 C65 271 65 271 64 272 C59.75497835 272.44820627 57.46578558 271.43361802 53.88671875 269.2109375 C52.89760498 268.60572266 51.90849121 268.00050781 50.8894043 267.37695312 C49.83277588 266.71630859 48.77614746 266.05566406 47.6875 265.375 C46.01131424 264.34728361 44.33510818 263.31959813 42.657547 262.29412842 C41.50410444 261.58870965 40.35143254 260.88202931 39.19950867 260.1741333 C33.25024779 256.52210661 27.22546538 253.00312516 21.1875 249.5 C20.24156982 248.95005371 19.29563965 248.40010742 18.32104492 247.83349609 C16.48826048 246.76819718 14.65341808 245.70642999 12.81640625 244.6484375 C10.80400517 243.47058277 8.80823504 242.26412545 6.82421875 241.0390625 C5.77234375 240.39710938 4.72046875 239.75515625 3.63671875 239.09375 C2.68627686 238.50271484 1.73583496 237.91167969 0.7565918 237.30273438 C-3.702084 235.19561419 -7.35294423 235.88841191 -12 237 C-16.62382658 237.9053082 -21.13707255 238.18763916 -25.8359375 238.23828125 C-26.95821495 238.25283607 -26.95821495 238.25283607 -28.10316467 238.26768494 C-30.52716458 238.29261558 -32.9508846 238.30521867 -35.375 238.3125 C-36.61553635 238.31642761 -36.61553635 238.31642761 -37.88113403 238.32043457 C-57.14438877 238.32696267 -79.63682383 237.34304241 -97 228 C-97.3984375 225.76953125 -97.3984375 225.76953125 -97 223 C-94.87096946 221.29125359 -92.97318727 220.01853066 -90.625 218.6875 C-89.32940833 217.90537013 -88.0364497 217.1188629 -86.74609375 216.328125 C-86.10655762 215.93818359 -85.46702148 215.54824219 -84.80810547 215.14648438 C-80.58340351 212.46768335 -76.80756211 209.2292805 -73 206 C-72.26523437 205.41089844 -71.53046875 204.82179688 -70.7734375 204.21484375 C-52.82528875 189.27919346 -41.37247357 166.72752999 -35.125 144.5625 C-34.92173096 143.8415918 -34.71846191 143.12068359 -34.5090332 142.37792969 C-27.25206418 115.03465099 -33.13113882 86.1510549 -47 62 C-52.10404937 53.58048031 -58.19569357 46.10274092 -65 39 C-65.67289062 38.26394531 -66.34578125 37.52789062 -67.0390625 36.76953125 C-76.12636358 27.15469022 -87.11845381 19.56357134 -98.90234375 13.6328125 C-99.59457031 13.09398437 -100.28679687 12.55515625 -101 12 C-101.31640625 9.3046875 -101.31640625 9.3046875 -101 7 C-91.80570827 2.55648626 -81.97578319 0.78124294 -72 -1 C-70.71867187 -1.22945312 -69.43734375 -1.45890625 -68.1171875 -1.6953125 C-45.82214995 -4.94571839 -22.10575588 -3.96471305 0 0 Z " fill="#211F21" transform="translate(436,206)"/>
<path d="M0 0 C1.16402344 0.19335938 2.32804688 0.38671875 3.52734375 0.5859375 C41.49712314 7.53878652 80.10597878 28.4689005 102.53076172 60.55566406 C109.67838159 71.25498782 114.69162128 82.56901265 118 95 C118.35707031 95.99773437 118.71414063 96.99546875 119.08203125 98.0234375 C120.70143013 103.70768329 120.33954096 109.70465612 120.3125 115.5625 C120.30686035 116.8215918 120.3012207 118.08068359 120.29541016 119.37792969 C120.18246185 128.00449621 119.70968165 135.75805166 117 144 C116.80664062 144.61665527 116.61328125 145.23331055 116.4140625 145.86865234 C107.85513682 172.74077318 89.01588299 193.4063988 66 209 C64.94039063 209.72058594 63.88078125 210.44117188 62.7890625 211.18359375 C43.87435673 223.40430416 20.18754067 232.36135276 -2 236 C-3.22074219 236.20238281 -4.44148437 236.40476562 -5.69921875 236.61328125 C-17.07615201 238.23379011 -28.53226233 238.21137532 -40 238.25 C-40.80550293 238.25526703 -41.61100586 238.26053406 -42.44091797 238.26596069 C-50.64848892 238.30741202 -58.52556996 238.34205231 -66.54296875 236.33105469 C-72.61628612 235.51275 -77.12190761 237.27388377 -82.25390625 240.359375 C-82.82848572 240.70029175 -83.40306519 241.0412085 -83.99505615 241.39245605 C-85.85754902 242.50087865 -87.70987062 243.62518398 -89.5625 244.75 C-90.85439535 245.522925 -92.14696467 246.29472455 -93.44018555 247.06542969 C-96.05009296 248.62269824 -98.65634874 250.18581238 -101.25976562 251.75390625 C-106.58711871 254.95920272 -111.95196945 258.10063592 -117.3125 261.25 C-122.71083925 264.42743696 -128.06693051 267.63267738 -133.30371094 271.07177734 C-135.62254334 272.34066059 -137.41863288 272.46933948 -140 272 C-141 271 -141 271 -141.12025452 268.48802185 C-141.11803391 267.37105423 -141.11581329 266.25408661 -141.11352539 265.10327148 C-141.11344986 263.84203964 -141.11337433 262.5808078 -141.11329651 261.28135681 C-141.1081891 259.89460206 -141.10297309 258.50784771 -141.09765625 257.12109375 C-141.09579201 255.71004791 -141.09436814 254.29900143 -141.09336853 252.88795471 C-141.08954379 249.16759465 -141.0797139 245.4472734 -141.06866455 241.72692871 C-141.05844948 237.93319219 -141.05387071 234.13944942 -141.04882812 230.34570312 C-141.03809158 222.89711769 -141.0210157 215.44856428 -141 208 C-141.76497803 207.71495605 -142.52995605 207.42991211 -143.31811523 207.13623047 C-146.73478438 205.6886949 -149.29094976 203.53272388 -152.0625 201.125 C-152.62686768 200.63813721 -153.19123535 200.15127441 -153.77270508 199.6496582 C-175.3196766 180.83699767 -191.39033238 158.09392098 -195 129 C-196.71857416 100.19198529 -189.53303349 74.11880621 -170.5625 51.84765625 C-128.23683605 4.81197177 -61.22325784 -12.05401627 0 0 Z M-70 6 C-70.84755859 6.15597656 -71.69511719 6.31195313 -72.56835938 6.47265625 C-102.75696105 12.11343303 -132.92515977 23.99911234 -155 46 C-155.82628906 46.82113281 -156.65257812 47.64226562 -157.50390625 48.48828125 C-158.32761719 49.31714844 -159.15132812 50.14601563 -160 51 C-161.16789062 52.17175781 -161.16789062 52.17175781 -162.359375 53.3671875 C-173.03484726 64.56596723 -180.03554328 77.40895252 -185 92 C-185.3403125 92.98613281 -185.680625 93.97226562 -186.03125 94.98828125 C-190.18301826 109.500249 -189.72920815 127.71702861 -185 142 C-184.6596875 143.12019531 -184.319375 144.24039063 -183.96875 145.39453125 C-178.44181687 162.3301 -168.63199476 175.3748997 -156.3125 188.0625 C-155.5397876 188.87460937 -155.5397876 188.87460937 -154.75146484 189.703125 C-154.21086426 190.24582031 -153.67026367 190.78851563 -153.11328125 191.34765625 C-152.52063477 191.94352539 -151.92798828 192.53939453 -151.31738281 193.15332031 C-148.94114688 195.1962263 -148.94114688 195.1962263 -145.47167969 196.63574219 C-141.15292279 198.73582669 -137.58547644 200.84394995 -135 205 C-132.63473871 213.74001214 -133.31296409 223.14149149 -133.57513428 232.10968018 C-133.6585686 235.48167267 -133.66161879 238.8536941 -133.671875 242.2265625 C-133.70799315 248.82016539 -133.82318566 255.40874886 -134 262 C-130.59748722 260.66448226 -127.43627891 259.21960904 -124.25390625 257.41796875 C-123.34455322 256.90427734 -122.4352002 256.39058594 -121.49829102 255.86132812 C-120.04507446 255.0327832 -120.04507446 255.0327832 -118.5625 254.1875 C-117.55566162 253.61580078 -116.54882324 253.04410156 -115.51147461 252.45507812 C-106.55098401 247.34954445 -97.65346137 242.13879533 -88.78515625 236.875 C-87.97320801 236.39562988 -87.16125977 235.91625977 -86.32470703 235.42236328 C-84.8052326 234.49267855 -83.30923727 233.5231751 -81.84326172 232.51123047 C-77.32909903 229.41837362 -74.63431109 228.42071111 -69 229.125 C-67.865625 229.25132812 -66.73125 229.37765625 -65.5625 229.5078125 C-63.21232272 229.83250805 -60.86447439 230.17459821 -58.51953125 230.53515625 C-51.94520697 231.34532232 -45.30263501 231.28955853 -38.6875 231.3125 C-37.96501068 231.31511841 -37.24252136 231.31773682 -36.49813843 231.32043457 C-17.40761285 231.3277889 1.89532921 229.34401153 20 223 C20.69399902 222.76974121 21.38799805 222.53948242 22.10302734 222.30224609 C45.9116276 214.38640829 65.97337446 202.35096491 84 185 C84.64324219 184.41992188 85.28648437 183.83984375 85.94921875 183.2421875 C100.70072077 169.55664484 112.10723352 147.36864797 113.140625 127.26416016 C114.11446467 96.62229505 105.83051752 72.51944465 84.90234375 49.93359375 C81.75297279 46.73248774 78.50687463 43.8066383 75 41 C73.9996875 40.18917969 72.999375 39.37835938 71.96875 38.54296875 C49.69463305 21.0591556 22.72948342 10.86110361 -5 6 C-6.24136719 5.77570313 -7.48273438 5.55140625 -8.76171875 5.3203125 C-28.30746664 2.4348937 -50.62473227 2.26500863 -70 6 Z " fill="#06D6A4" transform="translate(279,206)"/>
<path d="M0 0 C0.78439453 0.13390137 1.56878906 0.26780273 2.37695312 0.40576172 C20.95611406 3.66699741 38.51568215 10.95732059 55 20 C55.63631348 20.34643555 56.27262695 20.69287109 56.92822266 21.04980469 C66.55635968 26.36070742 74.94263062 32.52897648 83 40 C83.55461914 40.51079102 84.10923828 41.02158203 84.68066406 41.54785156 C103.17296268 58.7670143 117.28576644 82.0822337 119.20703125 107.76782227 C120.05113603 132.43810341 115.89291199 154.68846155 101 175 C100.443125 175.77730469 99.88625 176.55460938 99.3125 177.35546875 C90.61078101 188.85148974 79.50674469 200.62785106 67 208 C66.34 208 65.68 208 65 208 C65.00222061 208.78704819 65.00444122 209.57409637 65.00672913 210.38499451 C65.02673113 217.7869033 65.04197366 225.18879908 65.05181217 232.59072781 C65.0570402 236.39651577 65.06413638 240.20228148 65.07543945 244.00805664 C65.0862712 247.67792544 65.09227744 251.34777278 65.09487724 255.01765633 C65.09673097 256.42074992 65.1003506 257.82384229 65.10573006 259.2269268 C65.11294419 261.1856968 65.11340809 263.1444882 65.11352539 265.10327148 C65.115746 266.22023911 65.11796661 267.33720673 65.12025452 268.48802185 C65 271 65 271 64 272 C59.75497835 272.44820627 57.46578558 271.43361802 53.88671875 269.2109375 C52.89760498 268.60572266 51.90849121 268.00050781 50.8894043 267.37695312 C49.83277588 266.71630859 48.77614746 266.05566406 47.6875 265.375 C46.01131424 264.34728361 44.33510818 263.31959813 42.657547 262.29412842 C41.50410444 261.58870965 40.35143254 260.88202931 39.19950867 260.1741333 C33.25024779 256.52210661 27.22546538 253.00312516 21.1875 249.5 C20.24156982 248.95005371 19.29563965 248.40010742 18.32104492 247.83349609 C16.48826048 246.76819718 14.65341808 245.70642999 12.81640625 244.6484375 C10.80400517 243.47058277 8.80823504 242.26412545 6.82421875 241.0390625 C5.77234375 240.39710938 4.72046875 239.75515625 3.63671875 239.09375 C2.68627686 238.50271484 1.73583496 237.91167969 0.7565918 237.30273438 C-3.702084 235.19561419 -7.35294423 235.88841191 -12 237 C-16.62382658 237.9053082 -21.13707255 238.18763916 -25.8359375 238.23828125 C-26.95821495 238.25283607 -26.95821495 238.25283607 -28.10316467 238.26768494 C-30.52716458 238.29261558 -32.9508846 238.30521867 -35.375 238.3125 C-36.61553635 238.31642761 -36.61553635 238.31642761 -37.88113403 238.32043457 C-57.14438877 238.32696267 -79.63682383 237.34304241 -97 228 C-97.3984375 225.76953125 -97.3984375 225.76953125 -97 223 C-94.87096946 221.29125359 -92.97318727 220.01853066 -90.625 218.6875 C-89.32940833 217.90537013 -88.0364497 217.1188629 -86.74609375 216.328125 C-86.10655762 215.93818359 -85.46702148 215.54824219 -84.80810547 215.14648438 C-80.58340351 212.46768335 -76.80756211 209.2292805 -73 206 C-72.26523437 205.41089844 -71.53046875 204.82179688 -70.7734375 204.21484375 C-52.82528875 189.27919346 -41.37247357 166.72752999 -35.125 144.5625 C-34.92173096 143.8415918 -34.71846191 143.12068359 -34.5090332 142.37792969 C-27.25206418 115.03465099 -33.13113882 86.1510549 -47 62 C-52.10404937 53.58048031 -58.19569357 46.10274092 -65 39 C-65.67289062 38.26394531 -66.34578125 37.52789062 -67.0390625 36.76953125 C-76.12636358 27.15469022 -87.11845381 19.56357134 -98.90234375 13.6328125 C-99.59457031 13.09398437 -100.28679687 12.55515625 -101 12 C-101.31640625 9.3046875 -101.31640625 9.3046875 -101 7 C-91.80570827 2.55648626 -81.97578319 0.78124294 -72 -1 C-70.71867187 -1.22945312 -69.43734375 -1.45890625 -68.1171875 -1.6953125 C-45.82214995 -4.94571839 -22.10575588 -3.96471305 0 0 Z M-87 9 C-87 9.99 -87 10.98 -87 12 C-85.67428608 13.38596828 -85.67428608 13.38596828 -83.8515625 14.6015625 C-83.18060547 15.0872168 -82.50964844 15.57287109 -81.81835938 16.07324219 C-81.09455078 16.58532227 -80.37074219 17.09740234 -79.625 17.625 C-73.05289303 22.41076777 -66.88762352 27.37902609 -61 33 C-60.3296875 33.60714844 -59.659375 34.21429688 -58.96875 34.83984375 C-38.20892144 54.32277809 -26.01963625 83.8545283 -24.71484375 111.9921875 C-24.4198465 122.9567807 -25.56975459 133.32315676 -28 144 C-28.41765625 145.91232422 -28.41765625 145.91232422 -28.84375 147.86328125 C-31.09588355 157.21157696 -34.57756138 165.51655049 -39 174 C-39.31485352 174.60763184 -39.62970703 175.21526367 -39.95410156 175.84130859 C-44.41883195 184.33701377 -49.65694974 191.77161233 -56 199 C-56.64710938 199.77988281 -57.29421875 200.55976563 -57.9609375 201.36328125 C-65.66372594 210.46514759 -75.16351278 217.36410515 -85 224 C-81.62440848 225.91476096 -78.35023169 226.70891869 -74.5625 227.5 C-72.89380859 227.85578125 -72.89380859 227.85578125 -71.19140625 228.21875 C-69.79525917 228.48441433 -68.39796819 228.74409151 -67 229 C-65.61711792 229.26248535 -65.61711792 229.26248535 -64.20629883 229.53027344 C-56.01092708 230.95489302 -47.98041071 231.31036153 -39.68920898 231.26074219 C-37.56790488 231.2500273 -35.44745047 231.26070444 -33.32617188 231.2734375 C-25.45796139 231.28027813 -17.94448677 230.76371292 -10.16381836 229.42871094 C-3.64135298 228.54488895 0.38355159 228.70267266 6.078125 232.15625 C6.9198954 232.65778343 6.9198954 232.65778343 7.77867126 233.16944885 C9.611258 234.26568425 11.43020553 235.38268255 13.25 236.5 C14.52421345 237.26644588 15.79937485 238.03131784 17.07543945 238.79467773 C19.72059286 240.37993532 22.36062454 241.97322936 24.99658203 243.57373047 C30.77761426 247.0820769 36.58649012 250.54341702 42.40002441 253.99755859 C44.16778643 255.05075506 45.93132082 256.11075615 47.69433594 257.171875 C48.75813477 257.80738281 49.82193359 258.44289063 50.91796875 259.09765625 C52.32212036 259.94082397 52.32212036 259.94082397 53.75463867 260.80102539 C55.86980137 262.15701041 55.86980137 262.15701041 58 262 C57.98810135 261.30366455 57.9762027 260.6073291 57.96394348 259.88989258 C57.86117342 253.29917935 57.81184472 246.71042509 57.82121754 240.11886597 C57.82418603 236.73035387 57.80713591 233.34450066 57.74291992 229.95654297 C57.67916838 226.05265616 57.68638176 222.15424267 57.70703125 218.25 C57.65468071 216.44172729 57.65468071 216.44172729 57.60127258 214.59692383 C57.6864539 209.53405593 57.74489088 206.30211215 61.35751343 202.55419922 C64.15884462 200.52189377 67.03354769 198.77812434 70 197 C73.46641406 194.13635901 76.73463045 191.08970093 80 188 C80.8353125 187.22914063 81.670625 186.45828125 82.53125 185.6640625 C99.56733328 169.41668678 111.38230883 146.58533753 112.23828125 122.84765625 C112.72948445 97.09393917 105.24279254 73.10301204 87.14453125 54.20703125 C85.76786015 52.79993648 84.38402351 51.39986355 83 50 C81.84951172 48.74123047 81.84951172 48.74123047 80.67578125 47.45703125 C54.59660089 19.60676903 12.17125123 5.26901189 -25.21582031 3.81347656 C-46.1564435 3.17459429 -66.57281336 4.07382959 -87 9 Z " fill="#08B6CC" transform="translate(436,206)"/>
<path d="M0 0 C5.78459469 5.40446418 9.0926839 13.31089379 9.375 21.125 C8.94922498 28.85991286 6.39118722 36.51551243 0.75 42 C-7.65490437 48.05153115 -14.82920451 50.15247447 -25.25 49 C-32.63642747 46.80348284 -38.05751624 42.41682931 -42.25 36 C-46.0779841 28.79518707 -46.88633279 19.40165769 -44.5234375 11.6015625 C-43.57416444 9.58725136 -42.52258535 7.82515531 -41.25 6 C-40.528125 4.948125 -39.80625 3.89625 -39.0625 2.8125 C-27.52889282 -8.72110718 -13.28928333 -8.17802051 0 0 Z " fill="#1E2223" transform="translate(337.25,302)"/>
<path d="M0 0 C5.5820301 3.7544321 10.20862525 9.03759648 11.63671875 15.7734375 C12.47081978 25.48144669 12.04190259 33.45307688 6.19921875 41.3984375 C0.52935393 47.48829231 -7.20511151 51.07666674 -15.48828125 51.4609375 C-24.01305904 50.94900567 -30.01377298 47.56492172 -35.80078125 41.3984375 C-41.36424489 34.54245201 -43.00567472 28.85331618 -42.7734375 20.05859375 C-41.82592835 12.46949665 -37.90032802 6.34342843 -32.296875 1.24609375 C-22.07939602 -6.53570338 -10.98319851 -6.11613407 0 0 Z " fill="#1F2321" transform="translate(179.36328125,300.2265625)"/>
<path d="M0 0 C7.97494489 3.71837921 14.25608096 9.24398435 17.5078125 17.54296875 C19.60249703 25.68759509 19.06406218 33.51560784 14.85546875 40.8359375 C10.36825378 46.93688407 4.55399965 52.08855182 -2.828125 54.125 C-12.14174935 55.26221225 -19.38532744 53.05892292 -27.140625 47.9375 C-34.12287582 40.63049332 -36.13477329 33.25501356 -36.046875 23.35546875 C-35.76078227 19.13049224 -34.92312927 16.79125747 -32.828125 13.125 C-32.291875 12.114375 -31.755625 11.10375 -31.203125 10.0625 C-27.99765834 6.09784387 -24.20151402 3.68127668 -19.828125 1.125 C-18.88839844 0.55845703 -18.88839844 0.55845703 -17.9296875 -0.01953125 C-12.45179422 -2.24938 -5.55380389 -1.71830397 0 0 Z " fill="#1F2124" transform="translate(483.828125,296.875)"/>
<path d="M0 0 C6.36167169 4.01602738 12.24047934 8.76862323 14.09765625 16.32421875 C15.13559816 25.72500691 15.07767682 34.49530293 9.09765625 42.32421875 C4.07005945 47.85667883 -1.28843262 51.78532362 -8.87890625 52.671875 C-17.7158682 53.07543649 -24.33160233 51.45430268 -30.96875 45.45703125 C-36.71678046 39.28899856 -39.48439171 32.96477144 -39.40234375 24.44921875 C-39.39589844 23.74740479 -39.38945312 23.04559082 -39.3828125 22.32250977 C-39.08677307 13.89999334 -36.02269477 9.08298245 -30.02734375 3.44921875 C-21.14303689 -3.66813489 -10.31203881 -5.33381318 0 0 Z " fill="#1F2221" transform="translate(253.90234375,298.67578125)"/>
<path d="M0 0 C5.5820301 3.7544321 10.20862525 9.03759648 11.63671875 15.7734375 C12.47081978 25.48144669 12.04190259 33.45307688 6.19921875 41.3984375 C0.52935393 47.48829231 -7.20511151 51.07666674 -15.48828125 51.4609375 C-24.01305904 50.94900567 -30.01377298 47.56492172 -35.80078125 41.3984375 C-41.36424489 34.54245201 -43.00567472 28.85331618 -42.7734375 20.05859375 C-41.82592835 12.46949665 -37.90032802 6.34342843 -32.296875 1.24609375 C-22.07939602 -6.53570338 -10.98319851 -6.11613407 0 0 Z M-31.23828125 10.8359375 C-35.37190197 16.55006027 -36.18759926 20.76673445 -35.36328125 27.7734375 C-33.47975885 34.43729207 -28.90755412 38.84576986 -23.36328125 42.7734375 C-17.93810436 44.5818298 -12.167887 44.93915553 -6.81640625 42.71484375 C-0.50653567 38.80822924 3.30015359 33.78313298 5.63671875 26.7734375 C6.25230501 20.61757491 4.86852318 15.95563119 1.63671875 10.7734375 C-2.08064988 6.71969445 -6.32264853 3.22197804 -11.87890625 2.40234375 C-20.40536322 2.19527265 -25.61537891 4.41209849 -31.23828125 10.8359375 Z " fill="#0FD696" transform="translate(179.36328125,300.2265625)"/>
<path d="M0 0 C5.78459469 5.40446418 9.0926839 13.31089379 9.375 21.125 C8.94922498 28.85991286 6.39118722 36.51551243 0.75 42 C-7.65490437 48.05153115 -14.82920451 50.15247447 -25.25 49 C-32.63642747 46.80348284 -38.05751624 42.41682931 -42.25 36 C-46.0779841 28.79518707 -46.88633279 19.40165769 -44.5234375 11.6015625 C-43.57416444 9.58725136 -42.52258535 7.82515531 -41.25 6 C-40.528125 4.948125 -39.80625 3.89625 -39.0625 2.8125 C-27.52889282 -8.72110718 -13.28928333 -8.17802051 0 0 Z M-34.125 8 C-38.74938148 14.52853856 -39.31346377 20.03335038 -38.25 28 C-35.75226455 33.97733931 -31.91063712 37.98099354 -26.25 41 C-20.59165621 42.8861146 -14.51345061 42.91147069 -9 40.5 C-3.76275308 37.53612193 -0.1361146 32.65834379 1.75 27 C2.45419922 19.85410954 2.10381779 13.89439947 -2.25 8 C-6.82976775 3.08145491 -11.42470106 0.93915537 -18.0625 0.625 C-24.71644378 0.78342723 -29.73486482 2.9571042 -34.125 8 Z " fill="#0DC2B2" transform="translate(337.25,302)"/>
<path d="M0 0 C7.97494489 3.71837921 14.25608096 9.24398435 17.5078125 17.54296875 C19.60249703 25.68759509 19.06406218 33.51560784 14.85546875 40.8359375 C10.36825378 46.93688407 4.55399965 52.08855182 -2.828125 54.125 C-12.14174935 55.26221225 -19.38532744 53.05892292 -27.140625 47.9375 C-34.12287582 40.63049332 -36.13477329 33.25501356 -36.046875 23.35546875 C-35.76078227 19.13049224 -34.92312927 16.79125747 -32.828125 13.125 C-32.291875 12.114375 -31.755625 11.10375 -31.203125 10.0625 C-27.99765834 6.09784387 -24.20151402 3.68127668 -19.828125 1.125 C-18.88839844 0.55845703 -18.88839844 0.55845703 -17.9296875 -0.01953125 C-12.45179422 -2.24938 -5.55380389 -1.71830397 0 0 Z M-26.890625 15.75 C-30.09270014 21.5537612 -29.89096959 28.17729154 -28.19921875 34.4609375 C-25.61746633 40.5043221 -20.60293247 44.23759626 -14.828125 47.125 C-8.58477123 47.65548104 -3.10700734 47.84421256 2.171875 44.125 C6.82759893 40.04137774 10.69451184 36.55375272 11.578125 30.20703125 C11.77317833 23.40454642 11.41708971 18.46485114 7.1328125 13.00390625 C2.30777554 8.38071346 -3.22442584 5.91439761 -9.890625 5.4375 C-17.13956822 5.85921525 -22.64394014 10.04799055 -26.890625 15.75 Z " fill="#0CAED0" transform="translate(483.828125,296.875)"/>
<path d="M0 0 C6.36167169 4.01602738 12.24047934 8.76862323 14.09765625 16.32421875 C15.13559816 25.72500691 15.07767682 34.49530293 9.09765625 42.32421875 C4.07005945 47.85667883 -1.28843262 51.78532362 -8.87890625 52.671875 C-17.7158682 53.07543649 -24.33160233 51.45430268 -30.96875 45.45703125 C-36.71678046 39.28899856 -39.48439171 32.96477144 -39.40234375 24.44921875 C-39.39589844 23.74740479 -39.38945312 23.04559082 -39.3828125 22.32250977 C-39.08677307 13.89999334 -36.02269477 9.08298245 -30.02734375 3.44921875 C-21.14303689 -3.66813489 -10.31203881 -5.33381318 0 0 Z M-28.77734375 12.32421875 C-32.44847652 17.50699442 -33.80557565 21.94442886 -32.90234375 28.32421875 C-30.76404593 35.8786841 -26.66348606 40.47146819 -20.01171875 44.45703125 C-15.20510378 46.43308407 -9.39461307 46.30182607 -4.58203125 44.4140625 C0.69706593 41.2927712 4.37970819 37.35107962 7.41015625 32.01171875 C9.05310174 25.58929549 8.70917141 19.99906482 5.43359375 14.1796875 C2.16688915 9.64259778 -2.38555822 5.60719213 -7.90234375 4.32421875 C-16.87712976 3.18678927 -22.78774277 5.58373485 -28.77734375 12.32421875 Z " fill="#0ECDA5" transform="translate(253.90234375,298.67578125)"/>
<path d="M0 0 C0.33 0 0.66 0 1 0 C1.42542013 4.67962145 -0.10430099 7.77113297 -2 12 C-3.79503692 17.1856622 -4.38172905 22.1085306 -4.75390625 27.546875 C-5 30 -5 30 -6 33 C-6.09485782 35.1649902 -6.12988077 37.33293823 -6.125 39.5 C-6.12757812 40.6446875 -6.13015625 41.789375 -6.1328125 42.96875 C-6.13684408 46.04679859 -6.13684408 46.04679859 -5 49 C-4.9224126 50.52013831 -4.86249563 52.04120426 -4.8125 53.5625 C-3.32974106 70.54682964 5.17210902 85.4866499 15 99 C15 99.66 15 100.32 15 101 C15.66 101 16.32 101 17 101 C17.0825 101.61875 17.165 102.2375 17.25 102.875 C18.24578885 105.69640174 19.36322266 105.71927958 22 107 C23.36244796 108.64295195 24.69864875 110.30824337 26 112 C26.99 112.495 26.99 112.495 28 113 C28 113.66 28 114.32 28 115 C28.556875 115.2475 29.11375 115.495 29.6875 115.75 C32.42410913 117.22924818 34.67650869 118.93467439 37 121 C37 121.66 37 122.32 37 123 C37.721875 123.2475 38.44375 123.495 39.1875 123.75 C42.38136537 125.16949572 44.49765821 126.54854809 47 129 C47.60127258 131.8727417 47.60127258 131.8727417 47.56762695 135.23730469 C47.5672493 136.49830994 47.56687164 137.75931519 47.56648254 139.05853271 C47.54095124 140.42965689 47.51487129 141.80077095 47.48828125 143.171875 C47.47895149 144.57862084 47.47183614 145.98538296 47.46684265 147.39215088 C47.4477849 151.08824811 47.39869701 154.78335718 47.34332275 158.47906494 C47.29210246 162.2528344 47.26932282 166.02676411 47.24414062 169.80078125 C47.19057506 177.20097051 47.10527962 184.60034661 47 192 C49.31 191.67 51.62 191.34 54 191 C54 190.34 54 189.68 54 189 C56.64738916 187.5393715 57.89448334 187 61 187 C61 186.34 61 185.68 61 185 C61.62003906 184.67128906 62.24007812 184.34257812 62.87890625 184.00390625 C69.10581104 180.6593242 75.18631902 177.1244579 81.22973633 173.46362305 C86.66321444 170.17962256 92.17197701 167.04565096 97.703125 163.9296875 C101.76470882 161.55240976 105.64540793 158.94821445 109.5 156.25 C112.53275524 154.73362238 114.65106006 154.69555091 118 155 C118.33 155.33 118.66 155.66 119 156 C130.826882 158.62524418 142.84160739 158.23333528 154.875 158.125 C156.83463081 158.11494396 158.79426665 158.10582278 160.75390625 158.09765625 C165.50273087 158.07586489 170.25130823 158.04148165 175 158 C175 158.33 175 158.66 175 159 C169.10409859 159.72818051 163.35167922 160.15889711 157.4140625 160.16796875 C156.63163177 160.17129715 155.84920105 160.17462555 155.0430603 160.17805481 C153.40110861 160.18307729 151.75914687 160.1854646 150.1171875 160.18530273 C147.63784594 160.18748867 145.15895068 160.20569308 142.6796875 160.22460938 C135.07678171 160.24988436 127.85985798 160.21464558 120.43505859 158.33325195 C114.37459659 157.50384242 109.86537017 159.2815327 104.74609375 162.359375 C104.17151428 162.70029175 103.59693481 163.0412085 103.00494385 163.39245605 C101.14245098 164.50087865 99.29012938 165.62518398 97.4375 166.75 C96.14560465 167.522925 94.85303533 168.29472455 93.55981445 169.06542969 C90.94990704 170.62269824 88.34365126 172.18581238 85.74023438 173.75390625 C80.41288129 176.95920272 75.04803055 180.10063592 69.6875 183.25 C64.28916075 186.42743696 58.93306949 189.63267738 53.69628906 193.07177734 C51.37745666 194.34066059 49.58136712 194.46933948 47 194 C46 193 46 193 45.87974548 190.48802185 C45.88196609 189.37105423 45.88418671 188.25408661 45.88647461 187.10327148 C45.88655014 185.84203964 45.88662567 184.5808078 45.88670349 183.28135681 C45.8918109 181.89460206 45.89702691 180.50784771 45.90234375 179.12109375 C45.90420799 177.71004791 45.90563186 176.29900143 45.90663147 174.88795471 C45.91045621 171.16759465 45.9202861 167.4472734 45.93133545 163.72692871 C45.94155052 159.93319219 45.94612929 156.13944942 45.95117188 152.34570312 C45.96190842 144.89711769 45.9789843 137.44856428 46 130 C45.23502197 129.71495605 44.47004395 129.42991211 43.68188477 129.13623047 C40.26521562 127.6886949 37.70905024 125.53272388 34.9375 123.125 C34.09094849 122.39470581 34.09094849 122.39470581 33.22729492 121.6496582 C11.6803234 102.83699767 -4.39033238 80.09392098 -8 51 C-9.05812392 33.26294214 -7.67271011 16.24329054 0 0 Z " fill="#1DDA82" transform="translate(92,284)"/>
<path d="M0 0 C1.05449341 -0.00315216 2.10898682 -0.00630432 3.19543457 -0.009552 C4.909505 -0.00651566 4.909505 -0.00651566 6.65820312 -0.00341797 C7.82702026 -0.00437469 8.9958374 -0.00533142 10.20007324 -0.00631714 C12.67488661 -0.0069986 15.14970177 -0.00514669 17.62451172 -0.00097656 C21.42354325 0.00437213 25.22245654 -0.00092275 29.02148438 -0.00732422 C31.42122422 -0.00666343 33.82096399 -0.00538226 36.22070312 -0.00341797 C37.36341675 -0.0054422 38.50613037 -0.00746643 39.68347168 -0.009552 C40.73796509 -0.00639984 41.7924585 -0.00324768 42.87890625 0 C43.80997192 0.00079559 44.7410376 0.00159119 45.70031738 0.00241089 C47.93945312 0.12939453 47.93945312 0.12939453 49.93945312 1.12939453 C51.31200843 1.26193743 52.68793299 1.36023656 54.06445312 1.44189453 C64.31435965 2.38047609 74.40433679 5.34822771 83.93945312 9.12939453 C87.25882984 10.17812515 90.59522584 11.16313214 93.93945312 12.12939453 C93.93945312 12.78939453 93.93945312 13.44939453 93.93945312 14.12939453 C94.92945313 14.28408203 94.92945313 14.28408203 95.93945312 14.44189453 C99.77786321 15.32153018 103.27042003 16.6990935 106.93945312 18.12939453 C106.93945312 18.78939453 106.93945312 19.44939453 106.93945312 20.12939453 C107.63941406 20.22220703 108.339375 20.31501953 109.06054688 20.41064453 C118.72809906 22.82425322 129.46662627 31.63948004 136.93945312 38.12939453 C136.93945312 38.78939453 136.93945312 39.44939453 136.93945312 40.12939453 C138.25945312 40.78939453 139.57945312 41.44939453 140.93945312 42.12939453 C140.93945312 42.78939453 140.93945312 43.44939453 140.93945312 44.12939453 C141.51695312 44.37689453 142.09445312 44.62439453 142.68945312 44.87939453 C145.26885292 46.31239442 147.00066904 47.9136413 148.93945312 50.12939453 C148.93945312 50.78939453 148.93945312 51.44939453 148.93945312 52.12939453 C149.59945312 52.12939453 150.25945312 52.12939453 150.93945312 52.12939453 C152.61937407 54.1990813 154.16604563 56.26069672 155.68945312 58.44189453 C156.36053101 59.39660645 156.36053101 59.39660645 157.04516602 60.37060547 C162.29998822 67.95425855 166.84909397 75.45740918 169.20117188 84.44970703 C169.86828018 87.0240362 169.86828018 87.0240362 170.65379333 89.04658508 C172.66390701 94.51069905 173.38424555 99.24084193 173.33789062 105.03955078 C173.34219589 106.25716347 173.34219589 106.25716347 173.34658813 107.49937439 C173.34861358 109.20100612 173.34319113 110.90266195 173.33056641 112.60424805 C173.31446905 115.18933718 173.33047727 117.77286826 173.34960938 120.35791016 C173.34762708 122.0226271 173.34378369 123.68734309 173.33789062 125.35205078 C173.34396332 126.11373062 173.35003601 126.87541046 173.35629272 127.66017151 C173.28599511 133.09528547 172.05901293 137.12220084 169.93945312 142.12939453 C169.16451873 144.43008865 168.42194607 146.73806076 167.68554688 149.05126953 C166.92224522 151.17732441 165.98827647 153.13077837 164.93945312 155.12939453 C164.27945313 155.12939453 163.61945313 155.12939453 162.93945312 155.12939453 C163.35195313 153.89189453 163.76445312 152.65439453 164.18945312 151.37939453 C164.46015625 150.56212891 164.73085938 149.74486328 165.00976562 148.90283203 C165.65889194 146.96636276 166.32144057 145.03436385 166.99414062 143.10595703 C167.52394531 141.57068359 167.52394531 141.57068359 168.06445312 140.00439453 C168.39703125 139.05306641 168.72960937 138.10173828 169.07226562 137.12158203 C175.51898363 114.87750098 170.79018192 90.15074573 160.10302734 70.16796875 C153.36281798 58.35916719 144.53663894 47.64105418 133.93945312 39.12939453 C132.93785156 38.31728516 131.93625 37.50517578 130.90429688 36.66845703 C108.62885159 19.18839798 81.6680771 8.99034748 53.93945312 4.12939453 C52.69808594 3.90509766 51.45671875 3.68080078 50.17773438 3.44970703 C30.64351199 0.56598967 8.30100797 0.37700528 -11.06054688 4.12939453 C-12.37176514 4.37931152 -12.37176514 4.37931152 -13.70947266 4.63427734 C-24.63185998 6.75111827 -35.23973445 9.14536071 -45.61132812 13.21142578 C-48.06054688 14.12939453 -48.06054688 14.12939453 -50.06054688 14.12939453 C-50.06054688 13.46939453 -50.06054688 12.80939453 -50.06054688 12.12939453 C-49.08214844 11.80326172 -48.10375 11.47712891 -47.09570312 11.14111328 C-46.14945068 10.82557495 -46.14945068 10.82557495 -45.18408203 10.50366211 C-43.80244095 10.04327874 -42.42060263 9.5834869 -41.03857422 9.12426758 C-38.14647751 8.16261651 -35.25685753 7.19740317 -32.37695312 6.19970703 C-24.70056543 3.54512733 -17.23169286 1.9969785 -9.12695312 1.37548828 C-5.8401356 0.98405255 -3.47274141 0.00296745 0 0 Z " fill="#19A8B7" transform="translate(220.060546875,208.87060546875)"/>
<path d="M0 0 C1.45194361 2.90388722 0.23989672 4.75957024 -0.69140625 7.71240234 C-5.66906934 23.80836657 -6.33582034 41.88496197 -1 58 C-0.6596875 59.12019531 -0.319375 60.24039063 0.03125 61.39453125 C5.46288662 78.03809345 15.0262442 91.00432043 27.125 103.5 C27.58414795 103.9854126 28.0432959 104.4708252 28.51635742 104.97094727 C29.0085376 105.46522217 29.50071777 105.95949707 30.0078125 106.46875 C30.56364014 107.02844482 31.11946777 107.58813965 31.69213867 108.16479492 C33.73236517 109.78717751 35.41305161 110.7260507 37.73950195 111.8293457 C42.31255345 114.19520035 46.20427139 116.56810451 49 121 C51.37309826 129.76740231 50.48714591 139.20118792 50.02996826 148.17834473 C49.8751333 151.54260699 49.8077314 154.90857583 49.73242188 158.27539062 C49.56780331 164.85468456 49.31748507 171.42640315 49 178 C53.21003916 175.60715405 57.41802602 173.21072901 61.625 170.8125 C62.56723419 170.27568604 62.56723419 170.27568604 63.52850342 169.72802734 C73.22640521 164.19962039 82.86427946 158.58300284 92.42041016 152.81176758 C93.26394043 152.30669678 94.1074707 151.80162598 94.9765625 151.28125 C95.70955566 150.83845703 96.44254883 150.39566406 97.19775391 149.93945312 C99 149 99 149 101 149 C101 149.66 101 150.32 101 151 C99.45892578 151.85271484 99.45892578 151.85271484 97.88671875 152.72265625 C90.64417867 156.75116027 83.53063877 160.86576014 76.578125 165.3828125 C73.04288666 167.6003711 69.38918119 169.55810897 65.703125 171.51171875 C62.1510916 173.46739032 58.76674543 175.66038927 55.38671875 177.8984375 C53 179 53 179 47 179 C47 159.86 47 140.72 47 121 C45.35 120.34 43.7 119.68 42 119 C40.02601375 117.72130445 38.08872858 116.38456271 36.1875 115 C35.21167969 114.29875 34.23585937 113.5975 33.23046875 112.875 C32.49441406 112.25625 31.75835937 111.6375 31 111 C31 110.34 31 109.68 31 109 C30.071875 108.62875 30.071875 108.62875 29.125 108.25 C26.59641373 106.76259631 26.28160996 105.56321991 25 103 C24.34 102.67 23.68 102.34 23 102 C20.50983207 100.75491604 20.01313282 99.53283204 19 97 C18.34 97 17.68 97 17 97 C14.2341273 93.8772405 12.12611323 90.57187023 10 87 C9.236875 86.01 8.47375 85.02 7.6875 84 C-5.21786422 66.08020209 -8.50650471 43.4885806 -7 22 C-6.67 21.34 -6.34 20.68 -6 20 C-5.87090134 18.66884937 -5.77092448 17.33479168 -5.6875 16 C-5.18204971 10.89578065 -3.76117319 3.76117319 0 0 Z " fill="#1ED586" transform="translate(96,290)"/>
<path d="M0 0 C2.375 -0.125 2.375 -0.125 5 0 C7.22189824 2.22189824 7.92598892 4.08482708 9 7 C10.66611905 7.042721 12.33382885 7.04063832 14 7 C14.33 6.67 14.66 6.34 15 6 C17.4375 5.8125 17.4375 5.8125 20 6 C22 8 22 8 22.125 11.625 C22.08375 12.73875 22.0425 13.8525 22 15 C18.57404607 16.46826597 15.73069283 17.25386143 12 18 C12 21.63 12 25.26 12 29 C7 30 7 30 4 28 C3.3125 24.375 3.3125 24.375 3 21 C2.01 21.33 1.02 21.66 0 22 C-1.53949329 22.09182942 -3.08277855 22.13002352 -4.625 22.125 C-5.81996094 22.12886719 -5.81996094 22.12886719 -7.0390625 22.1328125 C-9 22 -9 22 -10 21 C-10.04080783 19.00041636 -10.04254356 16.99954746 -10 15 C-6.37 13.68 -2.74 12.36 1 11 C0.67 9.68 0.34 8.36 0 7 C-0.03888349 4.66699067 -0.0448635 2.33290199 0 0 Z " fill="#073935" transform="translate(155,145)"/>
<path d="M0 0 C3.33600367 2.05838525 4.8262176 3.7393264 7 7 C7.43121354 12.34704794 7.46830537 15.66461829 4 20 C1.47450701 22.81689603 -0.71884281 23.2730238 -4.375 23.5 C-7.81427659 23.3921679 -9.80530532 22.84195396 -12.5 20.6875 C-15.91445586 17.01695995 -16.39610487 14.04721005 -16.359375 9.0703125 C-15.71820971 5.3766429 -13.64068388 3.57781045 -11 1 C-7.5402669 -0.72986655 -3.78289201 -0.48431489 0 0 Z " fill="#0DAFC9" transform="translate(553,408)"/>
<path d="M0 0 C6.19825453 1.1671567 11.76353596 2.88823986 17.5 5.5 C18.27263184 5.8503833 19.04526367 6.2007666 19.84130859 6.56176758 C50.39705883 20.73971026 76.84985395 43.46518376 90 75 C91.53977693 79.28937858 92.82840888 83.59783336 94 88 C94.35707031 88.99773437 94.71414063 89.99546875 95.08203125 91.0234375 C96.70143013 96.70768329 96.33954096 102.70465612 96.3125 108.5625 C96.30686035 109.8215918 96.3012207 111.08068359 96.29541016 112.37792969 C96.18246185 121.00449621 95.70968165 128.75805166 93 137 C92.80664062 137.61665527 92.61328125 138.23331055 92.4140625 138.86865234 C87.15913009 155.36735603 77.98778597 172.36243549 64 183 C64 182.01 64 181.02 64 180 C64.66 180 65.32 180 66 180 C66 179.34 66 178.68 66 178 C66.66 178 67.32 178 68 178 C68 177.34 68 176.68 68 176 C68.66 176 69.32 176 70 176 C70.26554687 175.25492188 70.53109375 174.50984375 70.8046875 173.7421875 C71.98369419 171.03740745 73.21021244 169.34259117 75.125 167.125 C81.73824554 158.83769021 86.95890299 149.06559462 89.52734375 138.7578125 C90 137 90 137 91 136 C93.22021492 128.4045279 93.37237853 120.90763202 93.37060547 113.04589844 C93.37495027 110.89956506 93.41128498 108.75534258 93.44921875 106.609375 C93.60449069 87.45618917 87.03006076 69.02991911 75.2890625 53.77734375 C74 52 74 52 74 50 C73.34 50 72.68 50 72 50 C70.63343747 48.42019365 69.33264868 46.78331347 68.0625 45.125 C52.33993823 25.61506995 30.29497191 12.48258287 7 4 C4.64825573 3.03597921 2.32493167 2.02729539 0 1 C0 0.67 0 0.34 0 0 Z " fill="#1BA8B7" transform="translate(303,213)"/>
<path d="M0 0 C0.33 0 0.66 0 1 0 C1 19.14 1 38.28 1 58 C-4.08288798 57.152852 -5.81808107 56.82020654 -9.8125 54.25 C-12.98129245 52.25886325 -16.14359531 50.33931956 -19.4375 48.5625 C-22.87267618 46.68162008 -26.15435155 44.63496873 -29.4375 42.5 C-34.45713567 39.264027 -39.61295441 36.56388801 -45 34 C-46.33469944 33.33607258 -47.66849146 32.67030384 -49 32 C-49 31.34 -49 30.68 -49 30 C-49.53625 29.896875 -50.0725 29.79375 -50.625 29.6875 C-53.62502044 28.81907303 -56.2379535 27.44379704 -59 26 C-59 25.34 -59 24.68 -59 24 C-59.52239258 24.30703857 -60.04478516 24.61407715 -60.58300781 24.93041992 C-70.14693 29.162697 -82.77782235 28.29520158 -93.06591797 28.20581055 C-95.29015201 28.18716338 -97.51397596 28.18530442 -99.73828125 28.18554688 C-110.55496295 28.14834568 -110.55496295 28.14834568 -114 27 C-115.62263592 26.84734784 -117.24835455 26.72636366 -118.875 26.625 C-127.51511547 25.90212181 -135.81789799 23.82521011 -144 21 C-143.67 20.34 -143.34 19.68 -143 19 C-142.43796875 19.18175781 -141.8759375 19.36351562 -141.296875 19.55078125 C-126.09455725 24.09748671 -110.91617271 25.28702108 -95.125 25.3125 C-94.42993347 25.31599457 -93.73486694 25.31948914 -93.01873779 25.3230896 C-84.61497688 25.34652777 -76.47726679 24.84068787 -68.17919922 23.42651367 C-61.64990251 22.55055903 -57.622866 22.69878059 -51.921875 26.15625 C-51.36069473 26.4905603 -50.79951447 26.82487061 -50.22132874 27.16931152 C-48.38866702 28.26548184 -46.56970141 29.38247196 -44.75 30.5 C-43.47576233 31.2671366 -42.20060135 32.03274145 -40.92456055 32.796875 C-38.27966389 34.38328006 -35.6397713 35.97756447 -33.00341797 37.578125 C-27.2294984 41.07881327 -21.41338399 44.50808792 -15.59997559 47.94262695 C-13.83380068 48.98739968 -12.06941236 50.03512114 -10.30566406 51.08398438 C-9.24186523 51.71626953 -8.17806641 52.34855469 -7.08203125 53 C-6.14593018 53.556875 -5.2098291 54.11375 -4.24536133 54.6875 C-2.85416075 55.50071021 -1.44131881 56.27934059 0 57 C0 38.19 0 19.38 0 0 Z " fill="#1BBBA5" transform="translate(494,411)"/>
<path d="M0 0 C1.36560059 0.00303635 1.36560059 0.00303635 2.75878906 0.00613403 C3.68723633 0.00517731 4.61568359 0.00422058 5.57226562 0.00323486 C7.53938871 0.00255298 9.50651403 0.00440781 11.47363281 0.00857544 C14.49581932 0.01392358 17.51785721 0.00863071 20.54003906 0.00222778 C22.44628939 0.00288856 24.35253963 0.00416972 26.25878906 0.00613403 C27.16918945 0.0041098 28.07958984 0.00208557 29.01757812 0 C35.39383938 0.02399685 35.39383938 0.02399685 36.50878906 1.13894653 C36.63378906 3.63894653 36.63378906 3.63894653 36.50878906 6.13894653 C34.34393395 8.30380165 29.30290638 7.30322458 26.29394531 7.30691528 C25.36786972 7.31024368 24.44179413 7.31357208 23.48765564 7.31700134 C21.52473448 7.32207461 19.56180466 7.32440955 17.59887695 7.32424927 C14.58758396 7.32643471 11.57665773 7.34458327 8.56542969 7.36355591 C6.66243616 7.36648989 4.75944087 7.36847465 2.85644531 7.36941528 C1.49858665 7.38019356 1.49858665 7.38019356 0.11329651 7.39118958 C-0.72419632 7.38811295 -1.56168915 7.38503632 -2.42456055 7.38186646 C-3.53256264 7.38400398 -3.53256264 7.38400398 -4.66294861 7.38618469 C-6.49121094 7.13894653 -6.49121094 7.13894653 -8.49121094 5.13894653 C-7.61870542 -0.61958989 -5.47477546 0.02060414 0 0 Z " fill="#00D8AD" transform="translate(390.4912109375,476.8610534667969)"/>
<path d="M0 0 C3.5060303 0.86943897 4.94966563 2.56083702 6.9375 5.48046875 C7.59562497 9.57546859 7.35551815 11.67926729 5.4375 15.35546875 C2.52120525 17.83431929 0.6650283 18.4249257 -3.09375 18.69140625 C-6.28832498 18.34913036 -7.91866798 16.75422998 -10.0625 14.48046875 C-11.63185594 11.34175687 -11.41451103 8.94191053 -11.0625 5.48046875 C-8.01136975 0.99912119 -5.26455839 -0.36891792 0 0 Z " fill="#0EE880" transform="translate(207.0625,477.51953125)"/>
<path d="M0 0 C4.70179599 0.40145581 7.86038 1.78768462 11.8125 4.3125 C13.24529297 5.20388672 13.24529297 5.20388672 14.70703125 6.11328125 C17.123697 8.10178135 17.69662229 8.94599773 18 12 C15.01550155 14.59940188 11.89046826 16.78614334 8.5 18.8125 C7.7678125 19.25207031 7.035625 19.69164062 6.28125 20.14453125 C3.46790884 21.19953418 1.84623701 20.81678985 -1 20 C-1 18.35 -1 16.7 -1 15 C1.31 13.68 3.62 12.36 6 11 C5.4225 10.566875 4.845 10.13375 4.25 9.6875 C2.16666667 8.125 0.08333333 6.5625 -2 5 C-1.125 1.125 -1.125 1.125 0 0 Z " fill="#0C99E9" transform="translate(476,173)"/>
<path d="M0 0 C0.67627441 0.12810059 1.35254883 0.25620117 2.04931641 0.38818359 C9.5081549 1.80231282 16.7808243 3.6545996 24 6 C24 6.33 24 6.66 24 7 C19.2490391 7.36545853 15.8058079 6.35381484 11.4140625 4.796875 C4.49407459 2.51260715 -2.6078988 1.74363669 -9.84765625 1.24609375 C-12 1 -12 1 -13 0 C-14.45745511 -0.09821482 -15.91961117 -0.12798358 -17.38037109 -0.12939453 C-18.7771962 -0.13412277 -18.7771962 -0.13412277 -20.20223999 -0.13894653 C-21.72248276 -0.13591019 -21.72248276 -0.13591019 -23.2734375 -0.1328125 C-24.30812164 -0.13376923 -25.34280579 -0.13472595 -26.40884399 -0.13571167 C-28.60296692 -0.13639375 -30.79709186 -0.13453755 -32.99121094 -0.13037109 C-36.35356179 -0.12503403 -39.71577839 -0.13030958 -43.078125 -0.13671875 C-45.20572946 -0.13605776 -47.33333384 -0.13477617 -49.4609375 -0.1328125 C-50.97510757 -0.13584885 -50.97510757 -0.13584885 -52.51986694 -0.13894653 C-53.457388 -0.13579437 -54.39490906 -0.13264221 -55.36083984 -0.12939453 C-56.59874771 -0.12820114 -56.59874771 -0.12820114 -57.86166382 -0.12698364 C-60.18742315 -0.08165551 -60.18742315 -0.08165551 -63 1 C-64.68455975 1.17658447 -66.37290436 1.31837743 -68.0625 1.4375 C-77.1129449 1.68740227 -77.1129449 1.68740227 -85 5 C-87.25869482 5.59024108 -89.53266976 6.12254514 -91.8125 6.625 C-93.05644531 6.90601563 -94.30039063 7.18703125 -95.58203125 7.4765625 C-98.72700315 7.95819248 -100.07689024 7.87169954 -103 7 C-69.60506636 -3.53467938 -34.54722031 -6.96406417 0 0 Z " fill="#1DAEB1" transform="translate(279,206)"/>
<path d="M0 0 C32.4600353 0.85831824 67.48198852 23.49220936 89.6875 45.4375 C90.62529297 46.36115356 90.62529297 46.36115356 91.58203125 47.3034668 C96 51.75424838 96 51.75424838 96 54 C92.34741183 52.50464511 90.45184421 50.44061392 87.9375 47.4375 C70.77432691 27.95043887 42.66118539 10.61992821 17 6 C17 5.34 17 4.68 17 4 C15.700625 4.020625 14.40125 4.04125 13.0625 4.0625 C11.70834367 4.08399454 10.35243917 4.07148199 9 4 C8.67 3.67 8.34 3.34 8 3 C6.65252916 2.76924918 5.29622435 2.58846937 3.9375 2.4375 C2.638125 2.293125 1.33875 2.14875 0 2 C0 1.34 0 0.68 0 0 Z " fill="#1897D1" transform="translate(436,207)"/>
<path d="M0 0 C7.77185941 11.65778912 4.83092439 34.21029736 2.6328125 47.46875 C2 50 2 50 0 54 C-0.33 50.7 -0.66 47.4 -1 44 C-1.33 46.31 -1.66 48.62 -2 51 C-3.485 51.495 -3.485 51.495 -5 52 C-4.79431396 50.95730957 -4.79431396 50.95730957 -4.58447266 49.89355469 C-3.07419323 41.66476274 -2.58427683 33.60363366 -2.375 25.25 C-2.33632813 23.96867187 -2.29765625 22.68734375 -2.2578125 21.3671875 C-2.16461064 18.2449253 -2.0788031 15.12265307 -2 12 C0 14 0 14 0.22705078 16.70556641 C0.21657715 17.82624512 0.20610352 18.94692383 0.1953125 20.1015625 C0.18886719 21.31328125 0.18242187 22.525 0.17578125 23.7734375 C0.15902344 25.04445313 0.14226562 26.31546875 0.125 27.625 C0.11597656 28.90375 0.10695313 30.1825 0.09765625 31.5 C0.07402303 34.66685167 0.04107629 37.83333424 0 41 C0.66 41 1.32 41 2 41 C1.88065762 36.60735635 1.75635262 32.21488785 1.62768555 27.82250977 C1.58469436 26.33198748 1.54299864 24.8414272 1.50268555 23.35083008 C1.29020881 15.52591516 1.04221976 7.76847841 0 0 Z " fill="#09393D" transform="translate(401,296)"/>
<path d="M0 0 C0.33 0 0.66 0 1 0 C1 18.81 1 37.62 1 57 C22.8191101 44.59194471 22.8191101 44.59194471 44.42041016 31.81176758 C45.68570557 31.05416138 45.68570557 31.05416138 46.9765625 30.28125 C47.70955566 29.83845703 48.44254883 29.39566406 49.19775391 28.93945312 C51 28 51 28 53 28 C53 28.66 53 29.32 53 30 C51.97261719 30.56847656 50.94523437 31.13695312 49.88671875 31.72265625 C42.64417867 35.75116027 35.53063877 39.86576014 28.578125 44.3828125 C25.04393139 46.59971576 21.39082926 48.55651265 17.70703125 50.51171875 C14.12954112 52.47856397 10.70782248 54.66881142 7.2890625 56.8984375 C5 58 5 58 0 58 C0 38.86 0 19.72 0 0 Z " fill="#20C776" transform="translate(144,411)"/>
<path d="M0 0 C3.64581687 -0.02887512 7.29160463 -0.04675585 10.9375 -0.0625 C12.49887695 -0.07506836 12.49887695 -0.07506836 14.09179688 -0.08789062 C15.08115234 -0.09111328 16.07050781 -0.09433594 17.08984375 -0.09765625 C18.46450806 -0.10551147 18.46450806 -0.10551147 19.86694336 -0.11352539 C22 0 22 0 23 1 C23.125 3.5 23.125 3.5 23 6 C20.64044489 8.35955511 14.73247174 7.18542405 11.5625 7.1875 C10.58216797 7.19974609 9.60183594 7.21199219 8.59179688 7.22460938 C7.65529297 7.22654297 6.71878906 7.22847656 5.75390625 7.23046875 C4.89095947 7.23457764 4.0280127 7.23868652 3.13891602 7.24291992 C1 7 1 7 -1 5 C-0.625 2.375 -0.625 2.375 0 0 Z " fill="#1FB39C" transform="translate(416,468)"/>
<path d="M0 0 C2.33294775 -0.04241723 4.66702567 -0.04092937 7 0 C7.33 0.33 7.66 0.66 8 1 C13.29894439 2.51398411 18.6729418 3.28037769 24.15234375 3.75390625 C26 4 26 4 28 5 C37.7406942 6.53564454 47.45542112 7.18663572 57.3125 7.1875 C58.64535034 7.18858765 58.64535034 7.18858765 60.00512695 7.18969727 C64.15410051 7.15428357 67.94084832 6.91814145 72 6 C74.14361032 5.80683361 76.2898707 5.64165753 78.4375 5.5 C81.77197108 5.2795391 84.97160723 5.0051345 88.26171875 4.41015625 C91.31678211 3.95255047 92.45801026 4.33792978 95 6 C95 6.66 95 7.32 95 8 C93.741875 7.79375 92.48375 7.5875 91.1875 7.375 C87.60648176 6.97113613 84.78140057 7.13792501 81.28125 7.953125 C73.34110957 9.4838346 65.36608886 9.39332374 57.3125 9.375 C56.09069534 9.37518127 56.09069534 9.37518127 54.84420776 9.37536621 C35.99908688 9.33565485 17.93876834 6.93747966 0 1 C0 0.67 0 0.34 0 0 Z " fill="#1ABBA1" transform="translate(343,435)"/>
<path d="M0 0 C1.36560059 0.00303635 1.36560059 0.00303635 2.75878906 0.00613403 C3.68723633 0.00517731 4.61568359 0.00422058 5.57226562 0.00323486 C7.53938871 0.00255298 9.50651403 0.00440781 11.47363281 0.00857544 C14.49581932 0.01392358 17.51785721 0.00863071 20.54003906 0.00222778 C22.44628939 0.00288856 24.35253963 0.00416972 26.25878906 0.00613403 C27.16918945 0.0041098 28.07958984 0.00208557 29.01757812 0 C35.39383938 0.02399685 35.39383938 0.02399685 36.50878906 1.13894653 C36.63378906 3.63894653 36.63378906 3.63894653 36.50878906 6.13894653 C34.34393395 8.30380165 29.30290638 7.30322458 26.29394531 7.30691528 C25.36786972 7.31024368 24.44179413 7.31357208 23.48765564 7.31700134 C21.52473448 7.32207461 19.56180466 7.32440955 17.59887695 7.32424927 C14.58758396 7.32643471 11.57665773 7.34458327 8.56542969 7.36355591 C6.66243616 7.36648989 4.75944087 7.36847465 2.85644531 7.36941528 C1.49858665 7.38019356 1.49858665 7.38019356 0.11329651 7.39118958 C-0.72419632 7.38811295 -1.56168915 7.38503632 -2.42456055 7.38186646 C-3.53256264 7.38400398 -3.53256264 7.38400398 -4.66294861 7.38618469 C-6.49121094 7.13894653 -6.49121094 7.13894653 -8.49121094 5.13894653 C-7.61870542 -0.61958989 -5.47477546 0.02060414 0 0 Z M-5.49121094 2.13894653 C-5.49121094 3.45894653 -5.49121094 4.77894653 -5.49121094 6.13894653 C7.70878906 6.13894653 20.90878906 6.13894653 34.50878906 6.13894653 C34.50878906 4.81894653 34.50878906 3.49894653 34.50878906 2.13894653 C21.30878906 2.13894653 8.10878906 2.13894653 -5.49121094 2.13894653 Z " fill="#23BEA0" transform="translate(390.4912109375,476.8610534667969)"/>
<path d="M0 0 C0.33 0 0.66 0 1 0 C1 19.14 1 38.28 1 58 C-4.08288798 57.152852 -5.81808107 56.82020654 -9.8125 54.25 C-12.98129245 52.25886325 -16.14359531 50.33931956 -19.4375 48.5625 C-22.87267618 46.68162008 -26.15435155 44.63496873 -29.4375 42.5 C-33.7974318 39.68536048 -38.22188764 37.27108266 -42.90625 35.04296875 C-45 34 -45 34 -48 32 C-48 31.34 -48 30.68 -48 30 C-44.25145849 31.40208725 -40.88143494 33.11675056 -37.421875 35.125 C-36.34164063 35.75019531 -35.26140625 36.37539063 -34.1484375 37.01953125 C-33.02695312 37.67308594 -31.90546875 38.32664062 -30.75 39 C-29.67492187 39.62261719 -28.59984375 40.24523437 -27.4921875 40.88671875 C-18.3033989 46.21621614 -9.15611039 51.61405271 0 57 C0 38.19 0 19.38 0 0 Z " fill="#149D99" transform="translate(494,411)"/>
<path d="M0 0 C0.69921875 1.6953125 0.69921875 1.6953125 1 4 C-1.13938714 8.00710608 -4.15149342 11.47136087 -7 15 C-7.48855469 15.6089209 -7.97710937 16.2178418 -8.48046875 16.84521484 C-10.03364145 18.76467417 -11.60593462 20.66638674 -13.1875 22.5625 C-13.68596436 23.17013184 -14.18442871 23.77776367 -14.69799805 24.40380859 C-17.5784688 27.78421157 -19.68605354 29.57973946 -24 31 C-25.34410262 33.01735205 -25.34410262 33.01735205 -26 35 C-26.99 35 -27.98 35 -29 35 C-29 35.66 -29 36.32 -29 37 C-30.67465856 38.38137335 -32.41689132 39.68146716 -34.1875 40.9375 C-35.15042969 41.62714844 -36.11335938 42.31679688 -37.10546875 43.02734375 C-40 45 -40 45 -42.73828125 46.56640625 C-45.25999234 47.95037121 -45.25999234 47.95037121 -47 51 C-46.34 51 -45.68 51 -45 51 C-45 51.66 -45 52.32 -45 53 C-46.32 52.67 -47.64 52.34 -49 52 C-49.3984375 49.76953125 -49.3984375 49.76953125 -49 47 C-46.87096946 45.29125359 -44.97318727 44.01853066 -42.625 42.6875 C-41.32940833 41.90537013 -40.0364497 41.1188629 -38.74609375 40.328125 C-38.10655762 39.93818359 -37.46702148 39.54824219 -36.80810547 39.14648438 C-32.58340351 36.46768335 -28.80756211 33.2292805 -25 30 C-24.26523437 29.41089844 -23.53046875 28.82179688 -22.7734375 28.21484375 C-13.49477706 20.49355565 -6.03564431 10.4062833 0 0 Z " fill="#18BDA8" transform="translate(388,382)"/>
<path d="M0 0 C1.485 0.495 1.485 0.495 3 1 C3.495 3.475 3.495 3.475 4 6 C10.93 6.33 17.86 6.66 25 7 C25 7.33 25 7.66 25 8 C21.7 8 18.4 8 15 8 C15.20625 9.11375 15.4125 10.2275 15.625 11.375 C15.74875 12.57125 15.8725 13.7675 16 15 C14 17 14 17 12.08908081 17.24050903 C10.92325974 17.2338472 10.92325974 17.2338472 9.73388672 17.22705078 C8.85312469 17.22689972 7.97236267 17.22674866 7.06491089 17.22659302 C6.11278717 17.21627045 5.16066345 17.20594788 4.1796875 17.1953125 C2.71899338 17.19106766 2.71899338 17.19106766 1.22879028 17.18673706 C-1.88926349 17.17551913 -5.00703268 17.1504117 -8.125 17.125 C-10.23567294 17.11497228 -12.34635038 17.10584607 -14.45703125 17.09765625 C-19.63811835 17.07557458 -24.81903885 17.04208129 -30 17 C-30 16.01 -30 15.02 -30 14 C-29.67 14.33 -29.34 14.66 -29 15 C-25.89748799 15.08874135 -22.8173188 15.11518455 -19.71484375 15.09765625 C-18.78402481 15.0962413 -17.85320587 15.09482635 -16.8941803 15.09336853 C-13.90858809 15.08775172 -10.92306971 15.0751964 -7.9375 15.0625 C-5.91862087 15.05748716 -3.89974057 15.05292388 -1.88085938 15.04882812 C3.07945572 15.03777683 8.03971532 15.02050095 13 15 C13 13.35 13 11.7 13 10 C-0.86 9.67 -14.72 9.34 -29 9 C-29 8.67 -29 8.34 -29 8 C-18.77 8 -8.54 8 2 8 C1.34 7.01 0.68 6.02 0 5 C-0.125 2.3125 -0.125 2.3125 0 0 Z " fill="#043D31" transform="translate(413,468)"/>
<path d="M0 0 C0.33 0 0.66 0 1 0 C1.79941084 18.74135254 2.23691927 35.6603601 -6 53 C-6.31533691 53.66612305 -6.63067383 54.33224609 -6.95556641 55.01855469 C-12.48564246 66.2742581 -20.13341737 77.20682966 -30 85 C-30 84.01 -30 83.02 -30 82 C-29.34 82 -28.68 82 -28 82 C-28 81.34 -28 80.68 -28 80 C-27.34 80 -26.68 80 -26 80 C-26 79.34 -26 78.68 -26 78 C-25.34 78 -24.68 78 -24 78 C-23.73445313 77.25492187 -23.46890625 76.50984375 -23.1953125 75.7421875 C-22.01630581 73.03740745 -20.78978756 71.34259117 -18.875 69.125 C-12.26175446 60.83769021 -7.04109701 51.06559462 -4.47265625 40.7578125 C-4 39 -4 39 -3 38 C-0.7460989 30.02531938 -0.57017282 22.18761775 -0.375 13.9375 C-0.33673029 12.5813576 -0.29767367 11.22523718 -0.2578125 9.86914062 C-0.16415893 6.57955896 -0.0784314 3.28997388 0 0 Z " fill="#18B6B1" transform="translate(397,311)"/>
<path d="M0 0 C1.39671181 -0.00956978 1.39671181 -0.00956978 2.82164001 -0.01933289 C3.82997391 -0.02044571 4.8383078 -0.02155853 5.87719727 -0.02270508 C6.91046646 -0.02603348 7.94373566 -0.02936188 9.00831604 -0.03279114 C11.19645746 -0.03786013 13.38460662 -0.04019947 15.57275391 -0.04003906 C18.92631727 -0.04222506 22.27955154 -0.06037986 25.63305664 -0.0793457 C27.75610239 -0.08227968 29.8791497 -0.08426445 32.00219727 -0.08520508 C33.00850693 -0.09239059 34.01481659 -0.09957611 35.05162048 -0.10697937 C35.98591385 -0.10390274 36.92020721 -0.10082611 37.8828125 -0.09765625 C38.70506821 -0.09908127 39.52732391 -0.10050629 40.37449646 -0.10197449 C42.50610352 0.14526367 42.50610352 0.14526367 45.50610352 2.14526367 C44.37817383 2.13479004 43.25024414 2.12431641 42.08813477 2.11352539 C37.82384533 2.07678206 33.55956924 2.05416977 29.29516602 2.03540039 C27.46441276 2.02546458 25.63367484 2.0119113 23.80297852 1.99438477 C8.10135441 1.84804287 -6.74269505 3.03400161 -22.11889648 6.45776367 C-23.09238037 6.67070068 -24.06586426 6.8836377 -25.06884766 7.10302734 C-31.94585653 8.66134467 -38.48393599 10.65523091 -45.04467773 13.22729492 C-47.49389648 14.14526367 -47.49389648 14.14526367 -49.49389648 14.14526367 C-49.49389648 13.48526367 -49.49389648 12.82526367 -49.49389648 12.14526367 C-48.51549805 11.81913086 -47.53709961 11.49299805 -46.52905273 11.15698242 C-45.58280029 10.84144409 -45.58280029 10.84144409 -44.61743164 10.51953125 C-43.23579056 10.05914789 -41.85395224 9.59935604 -40.47192383 9.14013672 C-37.57982712 8.17848565 -34.69020714 7.21327231 -31.81030273 6.21557617 C-24.13391504 3.56099647 -16.66504247 2.01284764 -8.56030273 1.39135742 C-5.46465808 1.02268897 -3.25059269 0.01508363 0 0 Z " fill="#1DB5A9" transform="translate(219.493896484375,208.854736328125)"/>
<path d="M0 0 C3 0.125 3 0.125 4 1.125 C15.826882 3.75024418 27.84160739 3.35833528 39.875 3.25 C41.83463081 3.23994396 43.79426665 3.23082278 45.75390625 3.22265625 C50.50273087 3.20086489 55.25130823 3.16648165 60 3.125 C60 3.455 60 3.785 60 4.125 C54.10409859 4.85318051 48.35167922 5.28389711 42.4140625 5.29296875 C41.63163177 5.29629715 40.84920105 5.29962555 40.0430603 5.30305481 C38.40110861 5.30807729 36.75914687 5.3104646 35.1171875 5.31030273 C32.63784594 5.31248867 30.15895068 5.33069308 27.6796875 5.34960938 C19.96720193 5.37524864 12.80324844 5.10385727 5.22436523 3.51708984 C-1.9977956 2.24403636 -7.06325085 5.52804916 -12.9375 9.1875 C-13.71673828 9.65994141 -14.49597656 10.13238281 -15.29882812 10.61914062 C-17.20588741 11.77741589 -19.10568539 12.94603883 -21 14.125 C-21.66 13.465 -22.32 12.805 -23 12.125 C-17.30115019 8.66285951 -11.57512096 5.28793915 -5.71484375 2.10546875 C-2.19212175 0.09133841 -2.19212175 0.09133841 0 0 Z " fill="#1EC883" transform="translate(207,438.875)"/>
<path d="M0 0 C5.13232267 4.33396137 10.07243039 8.82960206 14.9609375 13.4375 C17.7210691 15.97693041 17.7210691 15.97693041 20.2346344 17.08840942 C22.95913886 18.48278015 24.89538084 19.76506488 27 22 C28.26623236 26.49967847 28.05015258 30.84865537 27.87890625 35.4921875 C27.86617172 36.79326447 27.85343719 38.09434143 27.84031677 39.43484497 C27.80610016 42.87888816 27.71784561 46.31946446 27.61798096 49.762146 C27.52557865 53.28105766 27.48473904 56.80053498 27.43945312 60.3203125 C27.34319628 67.21495782 27.18978729 74.10731212 27 81 C26.67 81 26.34 81 26 81 C26 61.86 26 42.72 26 23 C24.35 22.34 22.7 21.68 21 21 C19.02601375 19.72130445 17.08872858 18.38456271 15.1875 17 C14.21167969 16.29875 13.23585937 15.5975 12.23046875 14.875 C11.49441406 14.25625 10.75835937 13.6375 10 13 C10 12.34 10 11.68 10 11 C9.38125 10.7525 8.7625 10.505 8.125 10.25 C5.59641373 8.76259631 5.28160996 7.56321991 4 5 C1.9664052 3.73195434 1.9664052 3.73195434 0 3 C0 2.01 0 1.02 0 0 Z " fill="#1BDD7F" transform="translate(117,388)"/>
<path d="M0 0 C1.06871338 -0.00960754 2.13742676 -0.01921509 3.23852539 -0.02911377 C4.39989014 -0.03336365 5.56125488 -0.03761353 6.7578125 -0.04199219 C8.54916626 -0.0505423 8.54916626 -0.0505423 10.37670898 -0.05926514 C12.91210033 -0.06872925 15.44750406 -0.0752547 17.98291016 -0.07910156 C21.83909068 -0.08875771 25.69472705 -0.11974804 29.55078125 -0.15136719 C32.01562184 -0.15790214 34.48046624 -0.16315068 36.9453125 -0.16699219 C38.0904834 -0.17933899 39.2356543 -0.19168579 40.41552734 -0.20440674 C47.40524952 -0.18523108 53.32181315 0.71982535 59.8828125 3.16113281 C55.86864586 4.32626068 52.83511957 3.86792118 48.6875 3.23925781 C40.10161245 2.04588777 31.66439372 1.85052465 23.0078125 1.91113281 C21.90126816 1.9137915 21.90126816 1.9137915 20.77236938 1.91650391 C10.80459229 1.94455594 0.99377982 2.31909995 -8.88671875 3.72363281 C-11.68697725 4.10286976 -14.2983305 4.24704084 -17.1171875 4.16113281 C-16.7871875 3.50113281 -16.4571875 2.84113281 -16.1171875 2.16113281 C-14.12109375 1.78222656 -14.12109375 1.78222656 -11.6796875 1.59863281 C-7.53887965 1.2729513 -4.19200251 0.03037034 0 0 Z " fill="#1A9FC5" transform="translate(375.1171875,208.8388671875)"/>
<path d="M0 0 C0.66 0 1.32 0 2 0 C2 3.63 2 7.26 2 11 C2.66 11 3.32 11 4 11 C4.02900455 14.6041498 4.04680018 18.20826962 4.0625 21.8125 C4.07087891 22.83666016 4.07925781 23.86082031 4.08789062 24.91601562 C4.09111328 25.89892578 4.09433594 26.88183594 4.09765625 27.89453125 C4.10289307 28.80050049 4.10812988 29.70646973 4.11352539 30.63989258 C4 33 4 33 3 36 C2.82471397 37.74729567 2.68239725 39.49803196 2.5625 41.25 C2.19066644 45.76597855 1.4301394 49.7095818 0 54 C-0.66 54 -1.32 54 -2 54 C-1.15726291 46.83673469 -1.15726291 46.83673469 -0.48828125 43.27734375 C2.10186458 29.04072658 1.46594703 14.3453388 0 0 Z " fill="#1AAEB7" transform="translate(403,300)"/>
<path d="M0 0 C0.66 0 1.32 0 2 0 C-5.46889151 16.09239426 -21.35360485 28.77819565 -36 38 C-36 37.01 -36 36.02 -36 35 C-30.74285714 31 -30.74285714 31 -28 31 C-28 30.34 -28 29.68 -28 29 C-26.35 28.34 -24.7 27.68 -23 27 C-23 26.34 -23 25.68 -23 25 C-21.4609375 23.51953125 -21.4609375 23.51953125 -19.375 21.8125 C-15.91212733 18.8899337 -13.02489092 15.84169098 -10.2265625 12.28515625 C-9.82179688 11.86105469 -9.41703125 11.43695313 -9 11 C-8.34 11 -7.68 11 -7 11 C-6.773125 10.484375 -6.54625 9.96875 -6.3125 9.4375 C-4.51782382 6.10452995 -2.50034985 2.85296329 0 0 Z " fill="#1BBCA5" transform="translate(388,392)"/>
<path d="M0 0 C0.33 2.31 0.66 4.62 1 7 C-0.65 7.33 -2.3 7.66 -4 8 C-4 10.31 -4 12.62 -4 15 C-5.98 15.33 -7.96 15.66 -10 16 C-10.66 14.02 -11.32 12.04 -12 10 C-10.02 9.34 -8.04 8.68 -6 8 C-6.33 6.02 -6.66 4.04 -7 2 C-4 0 -4 0 0 0 Z " fill="#1FD776" transform="translate(100,412)"/>
<path d="M0 0 C3.12483559 3.39492136 3.3753745 5.77128931 3.36328125 10.3203125 C3.36416748 11.57005859 3.36505371 12.81980469 3.3659668 14.10742188 C3.34943411 15.44663112 3.33158788 16.78582473 3.3125 18.125 C3.30723297 18.79829346 3.30196594 19.47158691 3.29653931 20.1652832 C3.23291938 28.29603059 3.0384319 36.40782164 2.1875 44.5 C2.11764893 45.19109863 2.04779785 45.88219727 1.97583008 46.59423828 C1.42761599 50.92212936 0.06290804 54.18576898 -2 58 C-2.73526897 60.04207852 -2.73526897 60.04207852 -3.1875 61.875 C-3.455625 62.90625 -3.72375 63.9375 -4 65 C-5.48919362 61.11102302 -4.43952138 58.49166673 -3.1875 54.625 C2.12353302 36.76228687 1.88078382 18.40481313 0 0 Z " fill="#08383C" transform="translate(410,300)"/>
<path d="M0 0 C0 0.33 0 0.66 0 1 C-11.20824702 1.17332341 -11.20824702 1.17332341 -16.5 0.5 C-21.74719852 -0.10016977 -26.97508794 -0.1136071 -32.25 -0.125 C-33.11431641 -0.12951172 -33.97863281 -0.13402344 -34.86914062 -0.13867188 C-39.38501277 -0.12817798 -43.54137439 0.24901134 -48 1 C-50.95969449 1.11838778 -53.91357237 1.0951259 -56.875 1.0625 C-57.65875 1.05798828 -58.4425 1.05347656 -59.25 1.04882812 C-61.16670014 1.03714093 -63.08336048 1.01920908 -65 1 C-65 0.67 -65 0.34 -65 0 C-44.20272007 -3.83107788 -20.8367452 -3.51463172 0 0 Z " fill="#083736" transform="translate(274,212)"/>
<path d="M0 0 C0 1.65 0 3.3 0 5 C-1.98 5.99 -1.98 5.99 -4 7 C-4 8.98 -4 10.96 -4 13 C-6.31 13.66 -8.62 14.32 -11 15 C-11.33 12.69 -11.66 10.38 -12 8 C-10.02 7.67 -8.04 7.34 -6 7 C-6.33 4.69 -6.66 2.38 -7 0 C-4.3333581 -1.33332095 -2.83319697 -0.67102033 0 0 Z " fill="#20D975" transform="translate(92,409)"/>
<path d="M0 0 C0.33 1.65 0.66 3.3 1 5 C-3.10457614 7.98514628 -5.97745369 8.2954439 -11 8 C-11.33 6.35 -11.66 4.7 -12 3 C-7.89542386 0.01485372 -5.02254631 -0.2954439 0 0 Z " fill="#1FAFA1" transform="translate(158,158)"/>
<path d="M0 0 C1 1 1 1 1.0625 3.5625 C1.041875 4.366875 1.02125 5.17125 1 6 C-3.17737474 7.59138085 -6.53160785 8.21278058 -11 8 C-11.33 6.35 -11.66 4.7 -12 3 C-7.79325038 0.59614307 -4.86186074 -0.45226612 0 0 Z " fill="#14B6AD" transform="translate(175,153)"/>
<path d="M0 0 C20.80452805 -0.49045038 40.48305702 0.1146459 61 4 C61 4.33 61 4.66 61 5 C59.02090602 5.02686553 57.04171029 5.04633375 55.0625 5.0625 C53.96035156 5.07410156 52.85820312 5.08570313 51.72265625 5.09765625 C49 5 49 5 48 4 C45.55807899 3.78791518 43.13411422 3.62358949 40.6875 3.5 C33.46842061 3.12908631 33.46842061 3.12908631 31.19360352 2.50219727 C28.20928457 1.81897589 25.3247227 1.77751342 22.265625 1.68359375 C20.97011719 1.64169922 19.67460937 1.59980469 18.33984375 1.55664062 C16.97656524 1.51683329 15.61328394 1.47712094 14.25 1.4375 C12.87108125 1.39427726 11.49217474 1.35066179 10.11328125 1.30664062 C6.7422881 1.20056042 3.37122174 1.0985015 0 1 C0 0.67 0 0.34 0 0 Z " fill="#0A3342" transform="translate(381,210)"/>
<path d="M0 0 C0.66 0 1.32 0 2 0 C3.63196132 5.71468809 4.27728439 10.73092167 4.1953125 16.65625 C4.1924826 17.44398804 4.18965271 18.23172607 4.18673706 19.04333496 C4.17565169 21.52905264 4.1505701 24.0143935 4.125 26.5 C4.1149551 28.19791142 4.10583191 29.89582855 4.09765625 31.59375 C4.07575071 35.72930914 4.04130326 39.86459096 4 44 C3.34 44 2.68 44 2 44 C2.0825 45.2375 2.165 46.475 2.25 47.75 C2.390625 49.859375 2.390625 49.859375 2 52 C-0.015625 54.265625 -0.015625 54.265625 -2 56 C-1.71125 54.82308594 -1.4225 53.64617187 -1.125 52.43359375 C2.86963182 35.11937255 3.75542245 17.46942052 0 0 Z " fill="#199BCE" transform="translate(545,298)"/>
<path d="M0 0 C6.6 0 13.2 0 20 0 C20 1.32 20 2.64 20 4 C13.4 4 6.8 4 0 4 C0 2.68 0 1.36 0 0 Z " fill="#00D3B3" transform="translate(417,469)"/>
<path d="M0 0 C-3.8038883 2.53592554 -6.60222864 3.12303483 -11.0625 3.4375 C-20.1129449 3.68740227 -20.1129449 3.68740227 -28 7 C-30.25869482 7.59024108 -32.53266976 8.12254514 -34.8125 8.625 C-36.05644531 8.90601563 -37.30039063 9.18703125 -38.58203125 9.4765625 C-41.72700315 9.95819248 -43.07689024 9.87169954 -46 9 C-15.33549027 -0.30636939 -15.33549027 -0.30636939 0 0 Z " fill="#1BB0A2" transform="translate(222,204)"/>
<path d="M0 0 C-2 2 -2 2 -4.32852173 2.24050903 C-5.3011496 2.23606781 -6.27377747 2.23162659 -7.27587891 2.22705078 C-8.3768692 2.22689972 -9.4778595 2.22674866 -10.61221313 2.22659302 C-11.80494843 2.21627045 -12.99768372 2.20594788 -14.2265625 2.1953125 C-15.44451508 2.1924826 -16.66246765 2.18965271 -17.91732788 2.18673706 C-21.81998383 2.17551256 -25.72241303 2.15040372 -29.625 2.125 C-32.26562169 2.11497314 -34.90624697 2.10584678 -37.546875 2.09765625 C-44.0313278 2.07556581 -50.5156477 2.04206592 -57 2 C-57 1.34 -57 0.68 -57 0 C-55.71424072 0.00523682 -54.42848145 0.01047363 -53.10375977 0.01586914 C-48.30103256 0.03406656 -43.49830837 0.04548559 -38.69555664 0.05493164 C-36.62296027 0.0599383 -34.55036739 0.06674559 -32.4777832 0.07543945 C-29.48648208 0.08766646 -26.49522794 0.09326513 -23.50390625 0.09765625 C-22.58791153 0.10281754 -21.67191681 0.10797882 -20.72816467 0.11329651 C-15.73711261 0.11372478 -10.92973368 -0.14556323 -5.99009705 -0.88233948 C-3.79247117 -1.01226973 -2.09735672 -0.63367494 0 0 Z " fill="#063A25" transform="translate(271,443)"/>
<path d="M0 0 C0.66 0 1.32 0 2 0 C0.83725185 6.55242782 -0.66145111 12.76725883 -3 19 C-3.50660156 20.35544922 -3.50660156 20.35544922 -4.0234375 21.73828125 C-7.26670645 29.95528816 -11.48897013 37.43311119 -16 45 C-16.495 43.515 -16.495 43.515 -17 42 C-15.99609375 40.01171875 -15.99609375 40.01171875 -14.4375 37.6875 C-7.40772575 26.48226819 -1.94994166 13.12832007 0 0 Z " fill="#1BB4AF" transform="translate(407,347)"/>
<path d="M0 0 C2.375 -0.125 2.375 -0.125 5 0 C7.24497221 2.24497221 7.37003419 2.96027349 7.75 6 C7.84796875 6.70125 7.9459375 7.4025 8.046875 8.125 C8 10 8 10 6 12 C3.375 11.625 3.375 11.625 1 11 C-0.17571451 7.32589215 -0.07366746 3.83070817 0 0 Z " fill="#22ADA4" transform="translate(155,145)"/>
<path d="M0 0 C2 1 2 1 3.1171875 4.25 C4.4547093 10.11310927 4.21404801 16.02008338 4.125 22 C4.11597656 23.15628906 4.10695313 24.31257813 4.09765625 25.50390625 C4.07424922 28.33615647 4.04145995 31.16796619 4 34 C3.34 34 2.68 34 2 34 C2.04125 35.093125 2.0825 36.18625 2.125 37.3125 C2 41 2 41 0 44 C0.0721875 43.40058594 0.144375 42.80117188 0.21875 42.18359375 C0.96610308 34.88652127 1.1109472 27.64396433 1.125 20.3125 C1.12951172 19.33917725 1.13402344 18.36585449 1.13867188 17.36303711 C1.12671293 11.49567876 0.7551098 5.81913978 0 0 Z " fill="#0A3043" transform="translate(553,302)"/>
<path d="M0 0 C1.9375 0.125 1.9375 0.125 4 1 C6.09242143 4.6617375 6.19324053 7.84532871 6 12 C4.35 12.33 2.7 12.66 1 13 C0.4654744 11.75579353 -0.05208611 10.50429064 -0.5625 9.25 C-0.85253906 8.55390625 -1.14257812 7.8578125 -1.44140625 7.140625 C-2.08403102 4.67797901 -1.86039859 3.36996018 -1 1 C-0.67 0.67 -0.34 0.34 0 0 Z " fill="#22B2A5" transform="translate(161,162)"/>
<path d="M0 0 C2 2 2 2 2.125 5.125 C2.08375 6.07375 2.0425 7.0225 2 8 C0.35 8.33 -1.3 8.66 -3 9 C-2.79375 9.94875 -2.5875 10.8975 -2.375 11.875 C-2.25125 12.90625 -2.1275 13.9375 -2 15 C-4 17 -4 17 -5.9453125 17.1953125 C-7.96354167 17.13020833 -9.98177083 17.06510417 -12 17 C-12.66 15.68 -13.32 14.36 -14 13 C-15.4540625 13.0309375 -15.4540625 13.0309375 -16.9375 13.0625 C-20 13 -20 13 -21 12 C-21.04092937 9.66702567 -21.04241723 7.33294775 -21 5 C-19 8 -19 8 -19 12 C-16.69 11.34 -14.38 10.68 -12 10 C-11.34 11.65 -10.68 13.3 -10 15 C-8.02 15 -6.04 15 -4 15 C-4.185625 13.865625 -4.37125 12.73125 -4.5625 11.5625 C-4.706875 10.386875 -4.85125 9.21125 -5 8 C-4 7 -4 7 -1.4375 6.9375 C-0.2309375 6.9684375 -0.2309375 6.9684375 1 7 C0.67 4.69 0.34 2.38 0 0 Z " fill="#093F1F" transform="translate(100,412)"/>
<path d="M0 0 C2.5 0.25 2.5 0.25 4.5 2.25 C4.125 5.875 4.125 5.875 3.5 9.25 C1.1875 9.9375 1.1875 9.9375 -1.5 10.25 C-3.3125 9.125 -3.3125 9.125 -4.5 7.25 C-4.8125 4.6875 -4.8125 4.6875 -4.5 2.25 C-2.5 0.25 -2.5 0.25 0 0 Z " fill="#12292F" transform="translate(548.5,414.75)"/>
<path d="M0 0 C0.33 0 0.66 0 1 0 C1.08767743 4.49987562 1.14062009 8.999529 1.1875 13.5 C1.21263672 14.7684375 1.23777344 16.036875 1.26367188 17.34375 C1.31850745 24.36270422 0.97933852 29.63037971 -2 36 C-2.7749344 38.30069412 -3.51750705 40.60866623 -4.25390625 42.921875 C-5.01720791 45.04792988 -5.95117665 47.00138384 -7 49 C-7.66 49 -8.32 49 -9 49 C-8.5875 47.7625 -8.175 46.525 -7.75 45.25 C-7.47929687 44.43273437 -7.20859375 43.61546875 -6.9296875 42.7734375 C-6.28056118 40.83696823 -5.61801255 38.90496932 -4.9453125 36.9765625 C-4.41550781 35.44128906 -4.41550781 35.44128906 -3.875 33.875 C-3.54242188 32.92367187 -3.20984375 31.97234375 -2.8671875 30.9921875 C-0.88232372 24.14351338 -0.73263959 17.14101192 -0.4375 10.0625 C-0.39431641 9.09248047 -0.35113281 8.12246094 -0.30664062 7.12304688 C-0.20137907 4.74881399 -0.09924293 2.37449079 0 0 Z " fill="#17A4A4" transform="translate(392,315)"/>
<path d="M0 0 C0.99 0.33 1.98 0.66 3 1 C3 19.15 3 37.3 3 56 C4.32 56.33 5.64 56.66 7 57 C5.35 57.66 3.7 58.32 2 59 C1.9845388 57.93551132 1.9845388 57.93551132 1.96876526 56.84951782 C1.87087812 50.16892967 1.76837629 43.48843025 1.66066074 36.80799294 C1.60544377 33.37333017 1.55202577 29.93865887 1.50268555 26.50390625 C1.44591293 22.55720111 1.38137602 18.61064158 1.31640625 14.6640625 C1.29969376 13.42757965 1.28298126 12.1910968 1.26576233 10.91714478 C1.24581711 9.77611298 1.22587189 8.63508118 1.20532227 7.45947266 C1.18977798 6.451315 1.1742337 5.44315735 1.15821838 4.40444946 C1.1551345 1.98733556 1.1551345 1.98733556 0 0 Z " fill="#013717" transform="translate(143,409)"/>
<path d="M0 0 C0.66 0.33 1.32 0.66 2 1 C1.67 19.81 1.34 38.62 1 58 C-0.65 57.34 -2.3 56.68 -4 56 C-2.02 55.505 -2.02 55.505 0 55 C0 36.85 0 18.7 0 0 Z " fill="#072C2D" transform="translate(493,410)"/>
<path d="M0 0 C0.33 0.99 0.66 1.98 1 3 C-5.7498933 8.85061284 -12.46180419 14.55939574 -19.87890625 19.5625 C-22.04622807 20.9713682 -22.04622807 20.9713682 -24.02734375 22.75 C-26 24 -26 24 -28.25 23.6875 C-28.8275 23.460625 -29.405 23.23375 -30 23 C-29.04480469 22.38253906 -28.08960938 21.76507813 -27.10546875 21.12890625 C-17.42368096 14.81005422 -8.11027511 8.31536253 0 0 Z " fill="#1CBA9E" transform="translate(362,391)"/>
<path d="M0 0 C0.66 0 1.32 0 2 0 C2 0.99 2 1.98 2 3 C4.31 3 6.62 3 9 3 C8.38125 3.28875 7.7625 3.5775 7.125 3.875 C4.86674235 4.93720042 4.86674235 4.93720042 3 7 C2.83312552 9.58354218 2.83312552 9.58354218 3 12 C1.02 12.66 -0.96 13.32 -3 14 C-4 13 -4 13 -4.0625 10.4375 C-4.041875 9.633125 -4.02125 8.82875 -4 8 C-2.35 7.34 -0.7 6.68 1 6 C0.67 4.02 0.34 2.04 0 0 Z " fill="#0B4222" transform="translate(91,408)"/>
<path d="M0 0 C1.32 0 2.64 0 4 0 C4 0.66 4 1.32 4 2 C4.928125 2.2165625 4.928125 2.2165625 5.875 2.4375 C8 3 8 3 10 4 C10 4.66 10 5.32 10 6 C10.99 6 11.98 6 13 6 C13 6.66 13 7.32 13 8 C13.9590625 8.1546875 13.9590625 8.1546875 14.9375 8.3125 C15.618125 8.539375 16.29875 8.76625 17 9 C17.33 9.99 17.66 10.98 18 12 C20.50447516 13.21869929 20.50447516 13.21869929 23 14 C23 14.66 23 15.32 23 16 C23.99 16.33 24.98 16.66 26 17 C25.67 17.99 25.34 18.98 25 20 C24.45214844 19.46632812 23.90429688 18.93265625 23.33984375 18.3828125 C17.53941099 12.93134886 11.51955203 8.47672303 4.82788086 4.18798828 C3.20527568 3.14576445 1.60065068 2.07563726 0 1 C0 0.67 0 0.34 0 0 Z " fill="#1794CF" transform="translate(490,233)"/>
<path d="M0 0 C-3.31369263 2.20912842 -5.16056322 2.44917657 -9.0625 2.9375 C-14.24190349 3.66088038 -19.02338359 4.75203237 -23.9765625 6.4140625 C-26 7 -26 7 -29 7 C-29 6.01 -29 5.02 -29 4 C-25.66909377 3.32081305 -22.33495832 2.65897708 -19 2 C-18.06542969 1.80921875 -17.13085938 1.6184375 -16.16796875 1.421875 C-10.66582872 0.3445329 -5.60566572 -0.21153456 0 0 Z " fill="#093B47" transform="translate(378,211)"/>
<path d="M0 0 C5.75 -0.125 5.75 -0.125 8 1 C9.37255531 1.13254289 10.74847987 1.23084203 12.125 1.3125 C19.60018553 1.97207519 26.77158788 4.07182555 34 6 C34 6.33 34 6.66 34 7 C27.46739914 7.39195605 21.71312306 6.18704117 15.3515625 4.72265625 C12.66027613 4.14236723 10.10942358 3.74067024 7.375 3.5 C3.95906813 2.99393602 2.46208061 2.35949392 0 0 Z " fill="#17AEB4" transform="translate(262,209)"/>
<path d="M0 0 C-3.92892516 2.43319494 -8.2060183 2.85607795 -12.6875 3.5625 C-17.75088559 3.95342875 -17.75088559 3.95342875 -22 6 C-23.59207821 6.42339421 -25.19957573 6.78966289 -26.8125 7.125 C-27.68519531 7.31320313 -28.55789063 7.50140625 -29.45703125 7.6953125 C-31.98963976 7.99875868 -33.60079158 7.79414358 -36 7 C-24.45730143 3.16541043 -12.2877463 -0.752311 0 0 Z " fill="#1C9DB7" transform="translate(372,205)"/>
<path d="M0 0 C4.97093824 0.41153737 9.44508386 0.79600832 14 3 C14 3.66 14 4.32 14 5 C14.763125 5.144375 15.52625 5.28875 16.3125 5.4375 C19 6 19 6 22 7 C22 7.66 22 8.32 22 9 C22.78375 9.144375 23.5675 9.28875 24.375 9.4375 C27 10 27 10 29 11 C29 11.66 29 12.32 29 13 C23.12684714 11.21575103 17.78204792 8.59199512 12.27734375 5.921875 C8.24493682 3.98862803 4.29207239 2.30392073 0 1 C0 0.67 0 0.34 0 0 Z " fill="#1892C9" transform="translate(461,220)"/>
<path d="M0 0 C7.33604715 11.00407072 5.31434848 26.4212248 5 39 C4.67 39 4.34 39 4 39 C3.96241577 38.09906616 3.96241577 38.09906616 3.92407227 37.17993164 C3.8084472 34.47388563 3.68557064 31.76821717 3.5625 29.0625 C3.52318359 28.11697266 3.48386719 27.17144531 3.44335938 26.19726562 C3.40146484 25.29814453 3.35957031 24.39902344 3.31640625 23.47265625 C3.26141968 22.22367554 3.26141968 22.22367554 3.20532227 20.94946289 C3.20632897 18.99661142 3.20632897 18.99661142 2 18 C1.7878267 16.29671992 1.63057539 14.58647031 1.5 12.875 C1.14456775 8.54775343 0.6672035 4.28916533 0 0 Z " fill="#083448" transform="translate(543,295)"/>
<path d="M0 0 C0.95777344 0.25394531 1.91554688 0.50789063 2.90234375 0.76953125 C12.86521614 3.36129268 22.84230066 5.34057387 33 7 C33 7.33 33 7.66 33 8 C31.02090602 8.02686553 29.04171029 8.04633375 27.0625 8.0625 C25.96035156 8.07410156 24.85820312 8.08570313 23.72265625 8.09765625 C21 8 21 8 20 7 C18.845 6.87625 17.69 6.7525 16.5 6.625 C10.39045591 5.920476 4.20321983 4.74685394 0 0 Z " fill="#083E33" transform="translate(341,435)"/>
<path d="M0 0 C-2.41656376 0.64622041 -4.83324646 1.29199004 -7.25 1.9375 C-7.93191406 2.11990234 -8.61382812 2.30230469 -9.31640625 2.49023438 C-11.21029944 2.99588547 -13.10512028 3.49805846 -15 4 C-16.0828125 4.309375 -16.0828125 4.309375 -17.1875 4.625 C-19.41036535 5.08490318 -21.48242117 5.09584675 -23.75 5.0625 C-24.54921875 5.05347656 -25.3484375 5.04445313 -26.171875 5.03515625 C-26.77515625 5.02355469 -27.3784375 5.01195312 -28 5 C-27.360625 4.690625 -26.72125 4.38125 -26.0625 4.0625 C-24.06389179 3.1654837 -24.06389179 3.1654837 -23 2 C-20.42102306 1.67762788 -17.84068179 1.48732696 -15.25 1.28125 C-13.03334648 1.23799335 -13.03334648 1.23799335 -12 0 C-10.54998009 -0.25996373 -9.08877907 -0.45919978 -7.625 -0.625 C-6.43777344 -0.76808594 -6.43777344 -0.76808594 -5.2265625 -0.9140625 C-3 -1 -3 -1 0 0 Z " fill="#1BC08B" transform="translate(296,437)"/>
<path d="M0 0 C0 0.33 0 0.66 0 1 C-0.59425781 1.03996094 -1.18851562 1.07992188 -1.80078125 1.12109375 C-10.11858464 2.16890413 -14.96767963 6.42641122 -21 12 C-21.33 11.34 -21.66 10.68 -22 10 C-15.7215337 1.6287116 -10.35594889 -0.75012909 0 0 Z " fill="#0B3641" transform="translate(479,303)"/>
<path d="M0 0 C-6.46902655 4.69321534 -6.46902655 4.69321534 -9.8125 6.625 C-12.26989717 7.96149318 -12.26989717 7.96149318 -14 11 C-13.34 11 -12.68 11 -12 11 C-12 11.66 -12 12.32 -12 13 C-13.32 12.67 -14.64 12.34 -16 12 C-16.39453125 9.7734375 -16.39453125 9.7734375 -16 7 C-13.87603736 5.23659593 -12.05246611 3.96707428 -9.6875 2.625 C-9.09259766 2.25761719 -8.49769531 1.89023437 -7.88476562 1.51171875 C-3.41159457 -1.13719819 -3.41159457 -1.13719819 0 0 Z " fill="#1AC4A0" transform="translate(355,422)"/>
<path d="M0 0 C0.33 0 0.66 0 1 0 C1.20923895 11.55463979 1.1142071 22.59838312 -1 34 C-1.33 34 -1.66 34 -2 34 C-2.02684679 31.35409986 -2.04676357 28.70846904 -2.0625 26.0625 C-2.07087891 25.30775391 -2.07925781 24.55300781 -2.08789062 23.77539062 C-2.09652441 21.85005687 -2.05224333 19.92464419 -2 18 C-1.67 17.67 -1.34 17.34 -1 17 C-0.76298761 14.14122091 -0.57780818 11.30116703 -0.4375 8.4375 C-0.39431641 7.63119141 -0.35113281 6.82488281 -0.30664062 5.99414062 C-0.20024738 3.99631195 -0.09959112 1.9981793 0 0 Z " fill="#1BA9B1" transform="translate(411,313)"/>
<path d="M0 0 C0 0.66 0 1.32 0 2 C-0.99 2 -1.98 2 -3 2 C-3.38478516 2.87978516 -3.38478516 2.87978516 -3.77734375 3.77734375 C-5.10489751 6.19069227 -6.55508686 7.68919379 -8.5625 9.5625 C-10.99626295 11.8343494 -11.92259794 12.76779382 -13 16 C-13.66 16 -14.32 16 -15 16 C-12.8001776 9.76716987 -7.76751731 0 0 0 Z " fill="#14A5C4" transform="translate(464,299)"/>
<path d="M0 0 C0 0.66 0 1.32 0 2 C-1.7015625 2.2165625 -1.7015625 2.2165625 -3.4375 2.4375 C-6.80777201 2.61171478 -6.80777201 2.61171478 -8 4 C-9.34267413 4.08631874 -10.68974322 4.10706473 -12.03515625 4.09765625 C-12.84404297 4.09443359 -13.65292969 4.09121094 -14.48632812 4.08789062 C-15.33646484 4.07951172 -16.18660156 4.07113281 -17.0625 4.0625 C-17.91650391 4.05798828 -18.77050781 4.05347656 -19.65039062 4.04882812 C-21.76695663 4.03700373 -23.88348685 4.01906769 -26 4 C-26 3.67 -26 3.34 -26 3 C-22.41727273 2.49559207 -18.83372823 1.99724229 -15.25 1.5 C-13.72632813 1.28537109 -13.72632813 1.28537109 -12.171875 1.06640625 C-10.70234375 0.86337891 -10.70234375 0.86337891 -9.203125 0.65625 C-7.85202637 0.46772461 -7.85202637 0.46772461 -6.47363281 0.27539062 C-4 0 -4 0 0 0 Z " fill="#1CC38D" transform="translate(284,433)"/>
<path d="M0 0 C0.33 0 0.66 0 1 0 C2.2051683 16.66193001 2.2051683 16.66193001 -2.25 22.4375 C-4.60708008 25.0111494 -6.80911033 26.59516141 -10 28 C-9.60167969 27.50371094 -9.20335937 27.00742187 -8.79296875 26.49609375 C-2.08659197 17.89691963 -0.47139913 10.80966965 0 0 Z " fill="#0C483C" transform="translate(268,318)"/>
<path d="M0 0 C1.48046875 1.0390625 1.48046875 1.0390625 3 3 C3.36328125 6.3984375 3.36328125 6.3984375 3.3125 10.375 C3.30863281 11.68210937 3.30476562 12.98921875 3.30078125 14.3359375 C3.02465863 17.6996131 2.45859605 19.98982966 1 23 C0.34 23 -0.32 23 -1 23 C-0.83628906 22.19304687 -0.67257813 21.38609375 -0.50390625 20.5546875 C0.08897993 16.37231212 0.10894252 12.34055182 0.0625 8.125 C0.05573242 6.949375 0.05573242 6.949375 0.04882812 5.75 C0.03714093 3.83329986 0.01920908 1.91663952 0 0 Z " fill="#084231" transform="translate(190,313)"/>
<path d="M0 0 C10.80001754 0.04954136 20.83253705 3.7263907 31 7 C27.47816139 8.01180406 25.67740489 7.82310908 22.1875 6.625 C18.11687679 5.30399012 14.2475316 4.5717831 10 4 C6.45641986 2.95777055 3.2790466 1.67814162 0 0 Z " fill="#073438" transform="translate(274,213)"/>
<path d="M0 0 C5.38053578 -0.32283215 8.30401207 0.46416652 13 3 C15.30315182 3.77300276 17.61613555 4.47929322 19.94921875 5.15625 C22.20845554 6.08576456 23.40395554 7.17594919 25 9 C16.58782396 6.56541729 8.29613284 3.79856214 0 1 C0 0.67 0 0.34 0 0 Z " fill="#08344A" transform="translate(450,209)"/>
<path d="M0 0 C1.1446875 0.2475 1.1446875 0.2475 2.3125 0.5 C8.92434402 1.39652122 15.47612003 1.48645366 22 0 C20.69523287 2.60953427 19.70489745 2.95648626 17 4 C14.16015625 4.265625 14.16015625 4.265625 11.0625 4.25 C10.04285156 4.25515625 9.02320313 4.2603125 7.97265625 4.265625 C4.94667796 3.99523535 2.74174353 3.27241136 0 2 C0 1.34 0 0.68 0 0 Z " fill="#0A3037" transform="translate(464,349)"/>
<path d="M0 0 C0.66 0 1.32 0 2 0 C2.0875127 3.22899426 2.14056146 6.45768116 2.1875 9.6875 C2.22520508 11.05551758 2.22520508 11.05551758 2.26367188 12.45117188 C2.35843071 21.1373981 2.35843071 21.1373981 -1 25 C-1.66 25 -2.32 25 -3 25 C-2.7834375 24.45214844 -2.566875 23.90429688 -2.34375 23.33984375 C0.42689104 15.45121301 0.29760345 8.26676247 0 0 Z " fill="#083331" transform="translate(345,314)"/>
<path d="M0 0 C0 1.32 0 2.64 0 4 C-3.37097383 5.49821059 -5.20442119 6 -9 6 C-8.6875 4.125 -8.6875 4.125 -8 2 C-4.77208445 -0.1519437 -3.71599191 -0.20086443 0 0 Z " fill="#03CCB9" transform="translate(157,159)"/>
<path d="M0 0 C0 1.65 0 3.3 0 5 C-1.98 5 -3.96 5 -6 5 C-6.33 3.35 -6.66 1.7 -7 0 C-4.3333581 -1.33332095 -2.83319697 -0.67102033 0 0 Z " fill="#19E379" transform="translate(92,409)"/>
<path d="M0 0 C-1.42598708 3.15703606 -3.1629134 5.58028568 -5.4375 8.1875 C-6.33275391 9.22970703 -6.33275391 9.22970703 -7.24609375 10.29296875 C-9 12 -9 12 -12 13 C-10.33786678 7.86249731 -6.12730521 0 0 0 Z " fill="#15BAAC" transform="translate(306,300)"/>
<path d="M0 0 C9.6594434 -0.1533245 17.9068076 0.58199151 27 4 C23.58434439 5.12800972 21.09259089 4.866975 17.578125 4.22265625 C16.55332031 4.03896484 15.52851563 3.85527344 14.47265625 3.66601562 C12.87744141 3.36727539 12.87744141 3.36727539 11.25 3.0625 C10.17105469 2.86720703 9.09210938 2.67191406 7.98046875 2.47070312 C5.31887282 1.98784723 2.65891745 1.49735831 0 1 C0 0.67 0 0.34 0 0 Z " fill="#093649" transform="translate(423,204)"/>
<path d="M0 0 C4 1 4 1 5 2 C5.04092937 4.33297433 5.04241723 6.66705225 5 9 C3.68 9 2.36 9 1 9 C0.67 6.03 0.34 3.06 0 0 Z " fill="#03C9BD" transform="translate(156,146)"/>
<path d="M0 0 C0.99 0 1.98 0 3 0 C3 0.66 3 1.32 3 2 C3.66 2 4.32 2 5 2 C6.98046875 4.265625 6.98046875 4.265625 9.1875 7.25 C9.92355469 8.22453125 10.65960937 9.1990625 11.41796875 10.203125 C13 13 13 13 12.73828125 15.359375 C12.49464844 15.90078125 12.25101563 16.4421875 12 17 C11.38511719 16.10796875 10.77023437 15.2159375 10.13671875 14.296875 C9.32035449 13.11455434 8.5039459 11.93226429 7.6875 10.75 C7.28337891 10.16347656 6.87925781 9.57695312 6.46289062 8.97265625 C4.36492371 5.93657405 2.24216079 2.93149825 0 0 Z " fill="#1798D5" transform="translate(522,259)"/>
<path d="M0 0 C1.98 0 3.96 0 6 0 C6 1.65 6 3.3 6 5 C4.02 5.66 2.04 6.32 0 7 C0 4.69 0 2.38 0 0 Z " fill="#0F9A53" transform="translate(202,483)"/>
<path d="M0 0 C1.32 0.33 2.64 0.66 4 1 C4.33 3.64 4.66 6.28 5 9 C3.68 9 2.36 9 1 9 C0.67 6.03 0.34 3.06 0 0 Z " fill="#03CBBA" transform="translate(161,164)"/>
<path d="M0 0 C0.56847656 0.2165625 1.13695312 0.433125 1.72265625 0.65625 C6.70839692 2.45411308 10.69955376 3.44170385 16 3 C16.33 2.67 16.66 2.34 17 2 C18.66617115 1.95936168 20.33388095 1.957279 22 2 C17.99456695 5.53641278 14.94604224 5.48896812 9.7734375 5.37109375 C5.71856591 4.82854051 3.30994612 3.35373946 0 1 C0 0.67 0 0.34 0 0 Z " fill="#063E30" transform="translate(229,339)"/>
<path d="M0 0 C0.66 0.33 1.32 0.66 2 1 C0.90344712 2.31886772 -0.20253423 3.62990057 -1.3125 4.9375 C-1.92738281 5.66839844 -2.54226563 6.39929688 -3.17578125 7.15234375 C-5 9 -5 9 -8 10 C-6.5682479 4.98886765 -4.01554307 3.05530451 0 0 Z " fill="#0D322F" transform="translate(309,305)"/>
<path d="M0 0 C2.75167577 3.2858246 4.21933799 6.63627487 5.75 10.625 C6.19859375 11.77226562 6.6471875 12.91953125 7.109375 14.1015625 C8 17 8 17 7 19 C6.74605469 18.40832031 6.49210938 17.81664062 6.23046875 17.20703125 C4.72181921 13.74335272 3.28221348 10.44347833 1.25 7.25 C-0.20398796 4.63282168 -0.25273992 2.94863238 0 0 Z " fill="#198FC6" transform="translate(543,277)"/>
<path d="M0 0 C0.66 0.33 1.32 0.66 2 1 C-4.93 7.435 -4.93 7.435 -12 14 C-12.99 13.67 -13.98 13.34 -15 13 C-13.43910974 11.58155991 -11.8762111 10.16532975 -10.3125 8.75 C-9.44238281 7.96109375 -8.57226562 7.1721875 -7.67578125 6.359375 C-5.17579137 4.15500436 -2.62054272 2.05866059 0 0 Z " fill="#083F30" transform="translate(135,242)"/>
<path d="M0 0 C2.97 0.495 2.97 0.495 6 1 C6 2.32 6 3.64 6 5 C4.02 5.33 2.04 5.66 0 6 C0 4.02 0 2.04 0 0 Z " fill="#15EB78" transform="translate(90,422)"/>
<path d="M0 0 C0.33 0.99 0.66 1.98 1 3 C-0.4765625 5.41015625 -0.4765625 5.41015625 -2.625 8.0625 C-3.31851562 8.94035156 -4.01203125 9.81820313 -4.7265625 10.72265625 C-7.08290078 13.08304322 -8.84584124 14.0205507 -12 15 C-11.13375 14.01 -10.2675 13.02 -9.375 12 C-6.05802459 8.13809292 -3.00716738 4.10552994 0 0 Z " fill="#1BB1A2" transform="translate(375,376)"/>
<path d="M0 0 C3.72007056 4.11864955 8 10.20736961 8 16 C7.34 16 6.68 16 6 16 C5.32332002 14.75539217 4.65905281 13.50403104 4 12.25 C3.62875 11.55390625 3.2575 10.8578125 2.875 10.140625 C2 8 2 8 2 4 C1.34 4 0.68 4 0 4 C0 2.68 0 1.36 0 0 Z " fill="#09373E" transform="translate(389,268)"/>
<path d="M0 0 C0.33 0 0.66 0 1 0 C0.93986576 2.58577227 0.85282878 5.1658681 0.75 7.75 C0.73582031 8.47960937 0.72164062 9.20921875 0.70703125 9.9609375 C0.46424875 15.3021524 0.04423836 15.95576164 -4 20 C-2.68 13.4 -1.36 6.8 0 0 Z " fill="#1B90B7" transform="translate(547,334)"/>
<path d="M0 0 C0 3.16928058 -0.43616043 4.07857728 -1.9375 6.75 C-3.94259386 10.57597414 -4.64278481 13.71341766 -5 18 C-5.33 18 -5.66 18 -6 18 C-6.45743356 11.5959301 -5.48834422 7.42348408 -2 2 C-1.34 1.34 -0.68 0.68 0 0 Z " fill="#064B3B" transform="translate(227,309)"/>
<path d="M0 0 C0.33 0.66 0.66 1.32 1 2 C-0.3125 4 -0.3125 4 -2 6 C-2.99 6 -3.98 6 -5 6 C-5 6.66 -5 7.32 -5 8 C-5.99 8.66 -6.98 9.32 -8 10 C-8.99 9.67 -9.98 9.34 -11 9 C-9.93458984 8.15115234 -9.93458984 8.15115234 -8.84765625 7.28515625 C-7.92855469 6.55167969 -7.00945312 5.81820313 -6.0625 5.0625 C-5.14597656 4.33160156 -4.22945313 3.60070312 -3.28515625 2.84765625 C-1.59148731 1.48061289 -1.59148731 1.48061289 0 0 Z " fill="#1AB69B" transform="translate(364,411)"/>
<path d="M0 0 C13.46703297 -0.23626374 13.46703297 -0.23626374 16.9375 2.5625 C17.288125 3.036875 17.63875 3.51125 18 4 C11.91766294 3.32418477 5.98685848 2.26361972 0 1 C0 0.67 0 0.34 0 0 Z " fill="#083E42" transform="translate(279,206)"/>
<path d="M0 0 C4.29 0 8.58 0 13 0 C13 0.33 13 0.66 13 1 C9.7 1 6.4 1 3 1 C3.33 3.31 3.66 5.62 4 8 C2.66666667 5.33333333 1.33333333 2.66666667 0 0 Z " fill="#062C27" transform="translate(425,475)"/>
<path d="M0 0 C0.33 1.32 0.66 2.64 1 4 C-1.64 6.31 -4.28 8.62 -7 11 C-7.66 10.67 -8.32 10.34 -9 10 C-8.2575 9.278125 -7.515 8.55625 -6.75 7.8125 C-4.30709485 5.31407427 -2.1318953 2.76356798 0 0 Z " fill="#093D2B" transform="translate(188,336)"/>
<path d="M0 0 C6.2049038 0.2757735 10.10160999 1.10640794 15 5 C13 6 13 6 9.9609375 5.00390625 C8.77757812 4.52824219 7.59421875 4.05257812 6.375 3.5625 C5.18648438 3.08941406 3.99796875 2.61632812 2.7734375 2.12890625 C1.85820312 1.75636719 0.94296875 1.38382813 0 1 C0 0.67 0 0.34 0 0 Z " fill="#09373E" transform="translate(309,214)"/>
<path d="M0 0 C0 0.33 0 0.66 0 1 C-1.8253125 1.2165625 -1.8253125 1.2165625 -3.6875 1.4375 C-6.82670377 1.82780953 -9.9075134 2.32351856 -13 3 C-8.55436055 -1.64771397 -6.14660763 -0.89224949 0 0 Z " fill="#064328" transform="translate(213,442)"/>
<path d="M0 0 C0.66 0.33 1.32 0.66 2 1 C0.02 4.96 -1.96 8.92 -4 13 C-4.33 11.68 -4.66 10.36 -5 9 C-4.34 9 -3.68 9 -3 9 C-2.87625 8.2575 -2.7525 7.515 -2.625 6.75 C-2.04513299 4.19858515 -1.26291261 2.2732427 0 0 Z " fill="#199EC2" transform="translate(546,360)"/>
<path d="M0 0 C0 0.66 0 1.32 0 2 C-0.99 2.33 -1.98 2.66 -3 3 C-3.66 3.825 -4.32 4.65 -5 5.5 C-7 8 -7 8 -10 9 C-8.5124715 4.98367305 -4.56813239 0 0 0 Z " fill="#0A3123" transform="translate(157,305)"/>
<path d="M0 0 C0.99 0.33 1.98 0.66 3 1 C1.35 2.65 -0.3 4.3 -2 6 C-2.99 5.67 -3.98 5.34 -5 5 C-3.35 3.35 -1.7 1.7 0 0 Z " fill="#122922" transform="translate(120,256)"/>
<path d="M0 0 C1.45823212 -0.0270043 2.91660675 -0.04639787 4.375 -0.0625 C5.18710937 -0.07410156 5.99921875 -0.08570313 6.8359375 -0.09765625 C9 0 9 0 11 1 C11 1.66 11 2.32 11 3 C9.741875 2.87625 8.48375 2.7525 7.1875 2.625 C6.12595703 2.52058594 6.12595703 2.52058594 5.04296875 2.4140625 C3 2 3 2 0 0 Z " fill="#0B4035" transform="translate(355,431)"/>
<path d="M0 0 C0.33 0.66 0.66 1.32 1 2 C-1.31 4.64 -3.62 7.28 -6 10 C-6.66 9.67 -7.32 9.34 -8 9 C-5.36 6.03 -2.72 3.06 0 0 Z " fill="#093933" transform="translate(380,405)"/>
<path d="M0 0 C1 4 1 4 -0.9375 7.25 C-1.618125 8.1575 -2.29875 9.065 -3 10 C-3.99 9.67 -4.98 9.34 -6 9 C-4.02 6.03 -2.04 3.06 0 0 Z " fill="#19B0A5" transform="translate(388,382)"/>
<path d="M0 0 C0 0.66 0 1.32 0 2 C-0.99 2 -1.98 2 -3 2 C-3 2.66 -3 3.32 -3 4 C-6 6 -6 6 -8.1875 5.625 C-8.785625 5.41875 -9.38375 5.2125 -10 5 C-8.71186658 4.16121545 -7.41936744 3.32913217 -6.125 2.5 C-5.40570313 2.0359375 -4.68640625 1.571875 -3.9453125 1.09375 C-2 0 -2 0 0 0 Z " fill="#083D20" transform="translate(166,465)"/>
<path d="M0 0 C0 0.66 0 1.32 0 2 C-0.99 2 -1.98 2 -3 2 C-3 2.66 -3 3.32 -3 4 C-6 6 -6 6 -8.1875 5.625 C-8.785625 5.41875 -9.38375 5.2125 -10 5 C-8.71186658 4.16121545 -7.41936744 3.32913217 -6.125 2.5 C-5.40570313 2.0359375 -4.68640625 1.571875 -3.9453125 1.09375 C-2 0 -2 0 0 0 Z " fill="#093921" transform="translate(200,445)"/>
<path d="M0 0 C0.33 0 0.66 0 1 0 C1.66 4.62 2.32 9.24 3 14 C-1 10 -1 10 -1.171875 7.421875 C-1.03265625 6.54015625 -0.8934375 5.6584375 -0.75 4.75 C-0.62109375 3.85796875 -0.4921875 2.9659375 -0.359375 2.046875 C-0.18148438 1.03367187 -0.18148438 1.03367187 0 0 Z " fill="#1B95A8" transform="translate(454,320)"/>
<path d="M0 0 C3.63 0.33 7.26 0.66 11 1 C11.33 1.99 11.66 2.98 12 4 C6.06 2.515 6.06 2.515 0 1 C0 0.67 0 0.34 0 0 Z " fill="#1A9EA7" transform="translate(292,216)"/>
<path d="M0 0 C2.4375 0.75 2.4375 0.75 5 2 C5.8125 4.125 5.8125 4.125 6 6 C5.01 6.66 4.02 7.32 3 8 C3 6.02 3 4.04 3 2 C2.01 2 1.02 2 0 2 C0 1.34 0 0.68 0 0 Z " fill="#1890D5" transform="translate(488,179)"/>
<path d="M0 0 C0.33 0 0.66 0 1 0 C1.042721 1.66611905 1.04063832 3.33382885 1 5 C0.67 5.33 0.34 5.66 0 6 C-0.23075082 7.34747084 -0.41153063 8.70377565 -0.5625 10.0625 C-0.706875 11.361875 -0.85125 12.66125 -1 14 C-1.33 14 -1.66 14 -2 14 C-2.05437607 12.41705218 -2.09296271 10.83355744 -2.125 9.25 C-2.14820313 8.36828125 -2.17140625 7.4865625 -2.1953125 6.578125 C-1.99139502 3.8864142 -1.36551721 2.30095026 0 0 Z " fill="#063A27" transform="translate(146,314)"/>
<path d="M0 0 C0.6875 1.8125 0.6875 1.8125 1 4 C-0.375 5.5625 -0.375 5.5625 -2 7 C-2.33 7.99 -2.66 8.98 -3 10 C-3.66 10 -4.32 10 -5 10 C-3.66511872 6.40608886 -2.03977277 3.24509304 0 0 Z " fill="#199BB3" transform="translate(454,305)"/>
<path d="M0 0 C1.3921875 0.0928125 1.3921875 0.0928125 2.8125 0.1875 C3.1425 0.8475 3.4725 1.5075 3.8125 2.1875 C0.5125 2.5175 -2.7875 2.8475 -6.1875 3.1875 C-3.1875 0.1875 -3.1875 0.1875 0 0 Z " fill="#17DE8A" transform="translate(207.1875,438.8125)"/>
<path d="M0 0 C1.4835001 0.42257276 2.96176424 0.86356322 4.4375 1.3125 C5.67306641 1.67794922 5.67306641 1.67794922 6.93359375 2.05078125 C7.61550781 2.36402344 8.29742187 2.67726563 9 3 C9.33 3.99 9.66 4.98 10 6 C5.56909529 4.79157144 3.01887244 3.48331435 0 0 Z " fill="#1DB58D" transform="translate(224,344)"/>
<path d="M0 0 C1.98 0 3.96 0 6 0 C4.68 0.33 3.36 0.66 2 1 C2 2.32 2 3.64 2 5 C1.01 4.67 0.02 4.34 -1 4 C-0.67 2.68 -0.34 1.36 0 0 Z " fill="#1BBD97" transform="translate(383,478)"/>
<path d="M0 0 C0.66 0.33 1.32 0.66 2 1 C0.35 2.98 -1.3 4.96 -3 7 C-3.66 6.34 -4.32 5.68 -5 5 C-3.35 3.35 -1.7 1.7 0 0 Z " fill="#18B09B" transform="translate(375,408)"/>
<path d="M0 0 C0.99 0 1.98 0 3 0 C3 2.97 3 5.94 3 9 C0.87491756 5.81237635 0.4979837 3.73487777 0 0 Z " fill="#0B383E" transform="translate(396,299)"/>
<path d="M0 0 C3.3 0 6.6 0 10 0 C10.33 0.99 10.66 1.98 11 3 C7.37 2.34 3.74 1.68 0 1 C0 0.67 0 0.34 0 0 Z " fill="#1795C6" transform="translate(436,213)"/>
<path d="M0 0 C4.54805635 -0.17835515 7.8794254 0.00214565 12 2 C12 2.33 12 2.66 12 3 C7.53160785 3.21278058 4.17737474 2.59138085 0 1 C0 0.67 0 0.34 0 0 Z " fill="#0C2C3B" transform="translate(450,209)"/>
<path d="M0 0 C-0.33 0.99 -0.66 1.98 -1 3 C-2.84765625 3.73046875 -2.84765625 3.73046875 -5.0625 4.1875 C-5.79597656 4.34605469 -6.52945312 4.50460938 -7.28515625 4.66796875 C-8.13400391 4.83232422 -8.13400391 4.83232422 -9 5 C-6.45523312 2.20075644 -3.92372883 0 0 0 Z " fill="#0B3148" transform="translate(491,188)"/>
</svg>
